<svg width="51" height="51" viewBox="0 0 51 51" fill="none" xmlns="http://www.w3.org/2000/svg">
<path d="M25.4121 50.8984C39.2192 50.8984 50.4121 39.7056 50.4121 25.8984C50.4121 12.0913 39.2192 0.898438 25.4121 0.898438C11.605 0.898438 0.412109 12.0913 0.412109 25.8984C0.412109 39.7056 11.605 50.8984 25.4121 50.8984Z" fill="#412540"/>
<path d="M39.807 25.9126C39.7928 27.4822 39.7903 29.053 39.7608 30.6226C39.7428 31.5645 39.712 32.5091 39.5683 33.4434C39.2115 35.7791 38.1719 37.6939 36.193 39.0196C35.2715 39.6369 34.2448 39.9898 33.1655 40.1965C32.3313 40.3556 31.4856 40.4159 30.6386 40.4223C27.6702 40.4454 24.7017 40.4673 21.7333 40.4673C20.8029 40.4673 19.8699 40.4223 18.9407 40.3607C17.5175 40.2658 16.1468 39.9411 14.9084 39.1954C13.1643 38.1469 12.0465 36.6069 11.501 34.6331C11.2508 33.7257 11.1455 32.7966 11.1032 31.8572C10.9607 28.6423 11.03 25.4262 11.0339 22.2101C11.0352 21.263 11.0788 20.3133 11.1391 19.3674C11.2367 17.8608 11.5793 16.417 12.3776 15.1221C13.3581 13.5333 14.7467 12.4642 16.5151 11.9047C17.3262 11.648 18.1579 11.5043 19.0049 11.4491C21.5536 11.2809 24.1063 11.3438 26.6576 11.3374C27.7959 11.3348 28.933 11.3425 30.0713 11.3695C30.9966 11.3913 31.9232 11.4195 32.8421 11.5633C35.2228 11.938 37.153 13.0417 38.4517 15.1477C39.028 16.0833 39.3526 17.1177 39.5387 18.1983C39.7094 19.1916 39.7402 20.1978 39.7595 21.2014C39.7903 22.7709 39.7916 24.3418 39.8057 25.9113L39.807 25.9126ZM24.6786 13.9298C23.4556 13.9555 21.5036 13.9914 19.5529 14.0389C18.8406 14.0556 18.1386 14.1544 17.4494 14.3508C16.1866 14.7101 15.1933 15.4378 14.5221 16.5838C14.0074 17.4604 13.7944 18.437 13.7264 19.4406C13.6648 20.3389 13.6199 21.2399 13.6199 22.1408C13.616 25.3659 13.5429 28.591 13.6892 31.8148C13.7213 32.5117 13.797 33.2021 13.9741 33.8785C14.3309 35.2388 15.0829 36.3015 16.3021 36.9958C17.144 37.4757 18.0719 37.6811 19.0254 37.7465C19.893 37.8068 20.7644 37.8518 21.6345 37.8543C24.8275 37.8607 28.0205 37.9326 31.2123 37.7863C31.9425 37.7529 32.665 37.6695 33.3709 37.4693C34.635 37.1113 35.627 36.3836 36.2982 35.2375C36.8129 34.361 37.0259 33.3844 37.0939 32.3808C37.1555 31.4875 37.1979 30.5905 37.2017 29.6947C37.2107 26.6826 37.262 23.6706 37.1607 20.6598C37.1363 19.9154 37.1042 19.1724 36.9605 18.4408C36.8141 17.6914 36.5767 16.9778 36.1494 16.3413C35.3678 15.1785 34.2615 14.5253 32.9204 14.2378C31.9951 14.0389 31.0544 14.0107 30.115 13.9901C28.5467 13.9568 26.9784 13.9555 24.6812 13.9324L24.6786 13.9298Z" fill="white"/>
<path d="M32.7962 25.9084C32.7962 30.0396 29.4813 33.393 25.4002 33.3917C21.3306 33.3904 18.0195 30.0319 18.0195 25.9071C18.0195 21.776 21.3345 18.4225 25.4156 18.4238C29.4851 18.4251 32.7962 21.7837 32.7962 25.9084ZM20.6029 25.9007C20.6029 28.5868 22.75 30.7737 25.3938 30.7762C28.0465 30.7801 30.2102 28.6035 30.2141 25.9302C30.2179 23.2326 28.0721 21.0445 25.4233 21.0406C22.7654 21.0368 20.6042 23.2159 20.6029 25.9007Z" fill="white"/>
<path d="M34.796 18.1419C34.796 19.1044 34.0311 19.8872 33.0801 19.8937C32.1356 19.9001 31.3438 19.1018 31.3438 18.1419C31.3438 17.1768 32.1228 16.3939 33.0801 16.3965C34.0363 16.3991 34.7947 17.1716 34.796 18.1406V18.1419Z" fill="white"/>
</svg>
