<svg width="51" height="51" viewBox="0 0 51 51" fill="none" xmlns="http://www.w3.org/2000/svg">
<path d="M25.4121 50.8984C39.2192 50.8984 50.4121 39.7055 50.4121 25.8984C50.4121 12.0913 39.2192 0.898438 25.4121 0.898438C11.605 0.898438 0.412109 12.0913 0.412109 25.8984C0.412109 39.7055 11.605 50.8984 25.4121 50.8984Z" fill="#412540"/>
<path d="M36.0036 14.4925C36.4957 14.4777 36.926 14.5971 37.1809 15.0642C37.315 15.3102 37.3621 15.5828 37.3533 15.8613C37.3371 16.3991 37.259 16.931 37.1809 17.4629C36.8214 19.8602 36.4589 22.2561 36.0876 24.6504C35.734 26.921 35.3671 29.1901 35.0046 31.4607C34.7659 32.9533 34.5257 34.4459 34.29 35.9385C34.2443 36.2243 34.1736 36.5014 34.0586 36.7666C33.6785 37.6433 33.0037 37.9969 32.0621 37.8113C31.6687 37.7332 31.29 37.602 30.9246 37.4399C30.4664 37.2366 30.0273 36.9994 29.6103 36.7209C28.1324 35.7381 26.6516 34.7597 25.1796 33.7666C24.1644 33.0815 23.1595 32.3801 22.2048 31.6095C22.1267 31.5461 22.053 31.4798 21.9734 31.418C21.1866 30.7991 21.3001 29.8517 21.9204 29.2461C22.1443 29.028 22.3919 28.8409 22.6306 28.642C22.9562 28.3709 23.2597 28.0703 23.5706 27.78C25.5878 25.8911 27.5932 23.9903 29.5528 22.0439C29.8652 21.733 30.1466 21.3985 30.3235 20.9918C30.406 20.8018 30.5371 20.5911 30.3573 20.398C30.1923 20.2198 29.9787 20.3214 29.793 20.3789C29.3849 20.5056 29.0121 20.7134 28.6511 20.9388C27.4635 21.6799 26.3186 22.4874 25.1561 23.2668C23.245 24.5473 21.3398 25.8351 19.4317 27.1199C18.9175 27.4662 18.3885 27.7947 17.8876 28.1616C17.3895 28.5241 16.8326 28.6552 16.2373 28.6862C15.5801 28.7201 14.9407 28.6184 14.3144 28.4298C12.7953 27.973 11.288 27.4765 9.78359 26.9711C9.59941 26.9092 9.44617 26.812 9.32093 26.6676C9.0115 26.3139 9.00414 25.9485 9.30472 25.5846C9.5331 25.309 9.82926 25.1175 10.1475 24.9701C10.678 24.7241 11.2128 24.4898 11.7521 24.2644C12.9721 23.7546 14.1951 23.2521 15.4181 22.7511C16.641 22.2502 17.8684 21.758 19.0899 21.2556C21.8629 20.1151 24.6404 18.9821 27.406 17.821C28.4875 17.3672 29.5632 16.8986 30.6461 16.4507C32.0636 15.8642 33.487 15.2881 34.9088 14.7105C35.2595 14.5676 35.6249 14.4895 36.0051 14.491L36.0036 14.4925Z" fill="white"/>
</svg>
