<svg width="51" height="51" viewBox="0 0 51 51" fill="none" xmlns="http://www.w3.org/2000/svg">
<path d="M25.4121 50.9131C39.2192 50.9131 50.4121 39.7202 50.4121 25.9131C50.4121 12.106 39.2192 0.913086 25.4121 0.913086C11.605 0.913086 0.412109 12.106 0.412109 25.9131C0.412109 39.7202 11.605 50.9131 25.4121 50.9131Z" fill="#412540"/>
<path d="M33.6127 26.1526C35.9024 27.3092 37.7486 28.8563 39.2648 30.7969C40.5158 32.4 41.4205 34.1828 42.0423 36.1175C42.194 36.589 42.0496 36.6406 41.6253 36.6361C40.0104 36.6155 38.3955 36.6111 36.7806 36.6391C36.3636 36.6465 36.2 36.5021 36.0571 36.1234C34.8386 32.9157 32.7256 30.5935 29.3868 29.5253C28.9728 29.3927 28.5381 29.3278 28.1138 29.2276C27.7292 29.1363 27.5877 29.2497 27.5922 29.6756C27.6128 31.8224 27.601 33.9692 27.601 36.116C27.601 36.3768 27.6688 36.6376 27.2282 36.6361C23.4105 36.6258 19.7961 35.8965 16.5855 33.6966C13.4883 31.5734 11.5316 28.6088 10.2894 25.1241C9.25951 22.2347 8.84989 19.2362 8.72612 16.1861C8.71286 15.8723 8.78211 15.7485 9.12101 15.7515C10.7551 15.7662 12.3891 15.7736 14.0232 15.7471C14.4652 15.7397 14.4623 15.9754 14.4696 16.276C14.5153 18.1046 14.7393 19.911 15.2019 21.6821C15.7839 23.9129 16.6945 25.9831 18.2623 27.7144C19.1802 28.7296 20.2529 29.5312 21.5466 30.0041C22.1846 30.2384 22.2067 30.2163 22.2067 29.5371C22.2067 25.186 22.2067 20.8349 22.2082 16.4838C22.2082 15.6262 22.1433 15.7618 22.9361 15.7574C24.3226 15.75 25.7106 15.7692 27.0971 15.7471C27.492 15.7412 27.6128 15.8502 27.6098 16.2539C27.5922 18.6291 27.601 21.0043 27.601 23.3795C27.601 24.0382 27.6054 24.0455 28.264 23.8746C30.2282 23.3677 31.6928 22.13 32.954 20.6153C34.0459 19.3054 34.8739 17.8379 35.3793 16.2038C35.4869 15.8561 35.6475 15.7397 36.0159 15.7456C37.4598 15.7692 38.9038 15.7824 40.3478 15.7412C40.8974 15.725 40.918 15.9195 40.8119 16.3571C40.1209 19.1979 38.6975 21.6217 36.6686 23.7052C35.7786 24.6202 34.79 25.4158 33.6112 26.1511L33.6127 26.1526Z" fill="white"/>
</svg>
