<svg width="122" height="77" viewBox="0 0 122 77" fill="none" xmlns="http://www.w3.org/2000/svg">
<path d="M80.8615 75.4539L81.2472 74.8833C81.6209 75.1726 82.0147 75.3936 82.4165 75.5503C82.8223 75.703 83.2241 75.7793 83.6219 75.7793C84.1122 75.7793 84.51 75.6749 84.8153 75.4659C85.1207 75.257 85.2734 74.9918 85.2734 74.6623C85.2734 74.4011 85.1649 74.1881 84.9439 74.0234C84.7229 73.8546 84.4216 73.7542 84.0318 73.722C83.9394 73.714 83.8028 73.702 83.63 73.6939C82.758 73.6296 82.1633 73.5292 81.8459 73.3845C81.6008 73.264 81.4119 73.1113 81.2834 72.9264C81.1548 72.7376 81.0905 72.5286 81.0905 72.2916C81.0905 71.8656 81.2793 71.5161 81.6611 71.2388C82.0428 70.9615 82.537 70.8249 83.1438 70.8249C83.5858 70.8249 84.0238 70.8973 84.4537 71.0419C84.8837 71.1866 85.2935 71.4035 85.6833 71.6888L85.2975 72.2393C84.968 71.9741 84.6265 71.7772 84.2649 71.6406C83.9032 71.508 83.5335 71.4397 83.1518 71.4397C82.75 71.4397 82.4205 71.5201 82.1593 71.6728C81.9022 71.8295 81.7696 72.0223 81.7696 72.2594C81.7696 72.3518 81.7896 72.4362 81.8298 72.5126C81.87 72.5889 81.9383 72.6653 82.0227 72.7295C82.2397 72.8903 82.7098 72.9988 83.4371 73.043C83.7706 73.0631 84.0278 73.0832 84.2126 73.1032C84.751 73.1635 85.177 73.3363 85.4904 73.6216C85.8038 73.9069 85.9605 74.2565 85.9605 74.6743C85.9605 75.1686 85.7476 75.5784 85.3136 75.8959C84.8837 76.2173 84.3171 76.3781 83.6179 76.3781C83.0915 76.3781 82.5973 76.3017 82.1432 76.149C81.6892 75.9963 81.2593 75.7593 80.8494 75.4418M70.3579 76.2414V70.9374H74.5288V71.5482H71.0169V73.1032H73.1425V73.714H71.0169V75.6347H74.7458V76.2455H70.3579V76.2414ZM58.9664 76.2414V70.9254H59.6253V73.5734L62.6671 70.9254H63.531L61.3893 72.8139L63.8565 76.2414H63.0609L60.9152 73.272L59.6294 74.3529V76.2414H58.9704H58.9664ZM46.7591 76.2414L49.3589 70.9374H49.9054L52.5332 76.2414H51.818L51.0988 74.815H48.1695L47.4663 76.2414H46.7591ZM48.4709 74.1962H50.8054L49.6321 71.8455L48.4709 74.1962ZM40.2215 74.5498L40.7519 74.9436C40.5108 75.4057 40.1733 75.7593 39.7514 76.0084C39.3295 76.2575 38.8473 76.3821 38.3089 76.3821C37.5133 76.3821 36.8583 76.1209 36.34 75.5945C35.8216 75.0721 35.5645 74.4051 35.5645 73.6015C35.5645 72.7979 35.8216 72.1268 36.34 71.6045C36.8583 71.0821 37.5133 70.8169 38.3049 70.8169C38.7951 70.8169 39.2411 70.9254 39.6469 71.1383C40.0487 71.3513 40.3782 71.6607 40.6314 72.0585L40.0769 72.4523C39.9121 72.1348 39.671 71.8857 39.3576 71.7089C39.0442 71.5321 38.6946 71.4397 38.3049 71.4397C37.7102 71.4397 37.2159 71.6446 36.8262 72.0545C36.4364 72.4643 36.2395 72.9787 36.2395 73.6015C36.2395 74.2243 36.4364 74.7427 36.8262 75.1485C37.2159 75.5543 37.7102 75.7593 38.3049 75.7593C38.7227 75.7593 39.0924 75.6548 39.4139 75.4499C39.7353 75.2449 40.0045 74.9436 40.2175 74.5498H40.2215Z" fill="#412440"/>
<path d="M110.061 57.1794C109.7 57.7901 108.084 59.7952 106.931 60.6872C105.842 61.4105 105.842 60.185 106.405 58.7947C107.297 56.1226 109.109 53.784 110.065 57.1794M76.2079 57.1794C75.8463 57.7901 74.231 59.7952 73.0778 60.6872C71.9888 61.4105 71.9888 60.185 72.5514 58.7947C73.4434 56.1226 75.2556 53.784 76.212 57.1794H76.2079ZM65.9415 44.6547C67.2112 44.8917 64.8164 49.0064 64.3141 49.7417C63.1689 51.4173 61.6661 53.1531 60.1071 54.672C61.7224 49.4403 64.8204 44.3734 65.9093 44.6547H65.9415ZM6.43618 51.6383C6.18303 52.1486 5.92587 52.6589 5.67272 53.1692L5.65665 53.2013L5.6245 53.1813C5.18652 52.8839 4.90926 52.4821 4.90926 51.9437C4.90926 51.4374 5.06597 50.9873 5.64459 50.9873C6.01025 50.9873 6.27143 51.3208 6.43618 51.6101L6.44421 51.6262L6.43618 51.6423V51.6383ZM7.52108 53.7277C7.25187 53.7076 6.97863 53.6715 6.71745 53.5991L6.67727 53.5871L7.07507 52.8638L7.10319 52.912C7.25187 53.1652 7.40054 53.4224 7.54921 53.6755L7.58136 53.7277H7.52108ZM27.4553 56.9543L28.6768 56.1185C27.9174 58.0111 26.503 61.073 28.2469 61.6837C29.3037 62.1298 30.5855 60.5707 31.4454 59.2367C31.1802 62.1298 32.2369 62.9093 33.9165 62.9093C35.7086 62.9093 38.8187 61.9449 41.7761 60.5948C43.7732 59.6827 45.8305 58.4692 47.6386 57.1954C47.506 57.6414 47.4538 58.5656 47.2248 59.6264C45.7742 60.1287 44.621 61.0167 44.0584 62.7445C43.7611 63.6888 43.6968 64.7496 43.9258 65.3604C44.0584 65.8626 44.5527 66.1962 44.8179 66.1962C46.3689 66.6422 47.948 63.5241 48.2132 60.1849C50.7447 59.4777 52.9708 59.2527 55.2129 58.437C56.0487 58.1317 57.9935 57.2999 58.6244 56.6811C57.9975 60.856 59.2552 62.9696 61.6621 62.8008C64.2659 62.8008 67.9506 61.4145 71.1732 59.8193C71.1852 60.9082 71.579 61.744 72.2902 61.744C72.5876 61.744 72.917 61.6315 73.2465 61.4668C74.006 60.856 75.0266 59.6867 75.786 58.7384C75.1592 61.8565 76.3807 63.078 78.4541 63.078C80.1016 63.078 83.2116 60.8399 86.5427 58.7706C87.057 58.4491 89.3474 56.6932 89.3876 56.6771C88.1018 60.0162 87.8366 60.9082 88.0013 61.4065C88.0335 61.5752 88.3629 61.6837 88.4955 61.6837C88.596 61.6837 88.596 61.6275 89.2228 60.7917C90.6171 58.8148 95.6801 51.5901 93.1848 58.7344C92.5579 61.8525 93.7795 63.074 95.8528 63.074C97.6731 63.074 101.599 60.2211 105.332 57.9991C105.038 58.871 104.649 61.74 106.147 61.74C106.445 61.74 106.774 61.6275 107.104 61.4627C107.863 60.852 108.884 59.6827 109.643 58.7344C109.016 61.8525 110.238 63.074 112.311 63.074C113.991 63.074 117.201 60.7395 120.613 58.6339C120.918 58.4451 121.127 58.2844 121.284 58.1236C121.658 57.7379 121.429 57.2235 120.818 57.6013C117.439 59.7068 114.047 62.182 112.376 62.182C110.234 62.182 110.298 59.9559 111.19 57.8424C111.387 57.3963 111.717 56.5083 110.893 55.7288L110.399 56.5646C109.257 53.567 107.224 54.5635 106.007 56.5445C105.513 56.8941 104.548 57.4767 104.086 57.7861C100.851 59.9278 97.5445 62.186 95.9171 62.186C92.2244 62.186 95.7283 57.3521 94.7599 55.0618C94.6835 54.885 94.563 54.6158 94.2657 54.6158C92.8794 54.6158 90.6734 57.8424 89.3193 59.6787C89.4519 59.08 91.6739 54.5876 89.5443 55.8413C88.5639 56.4199 86.8682 57.6615 86.4623 57.9308C83.3 60.0282 80.1056 62.182 78.5184 62.182C76.3767 62.182 76.441 59.9559 77.333 57.8424C77.5299 57.3963 77.8594 56.5083 77.0357 55.7288L76.5414 56.5646C75.123 52.8357 72.3223 55.2828 71.4303 58.1236C71.3419 58.3969 71.2776 58.6741 71.2374 58.9474C68.2118 60.4743 64.4266 62.0213 61.6259 62.0213C59.4843 62.0213 59.2874 58.2924 59.8137 55.7328C61.4652 54.2099 63.2533 52.241 64.6677 50.1556C65.62 48.7452 66.9179 46.3704 66.6567 44.6707C66.5884 44.2287 66.3674 43.9354 65.9133 43.9354C63.6391 43.9354 60.4687 49.8381 58.8896 55.5681C58.2587 56.1708 56.4626 57.1552 55.6027 57.5289C53.1958 58.5817 50.821 58.7746 48.3177 59.2929C48.4342 58.216 48.5226 56.7454 48.8883 55.9538C49.4508 54.7403 50.9295 55.9418 50.8612 56.4762C51.5684 54.5032 49.1455 53.7559 48.1891 55.564C47.4257 56.2391 46.1559 57.3883 45.3041 57.9308C44.2152 58.6219 42.9816 59.2809 41.7239 59.8595C38.8107 61.2016 35.7448 62.1298 33.9246 62.1298C32.4419 62.1298 32.4097 59.8474 32.9361 58.0674C33.2977 56.7856 33.1008 55.9538 32.4097 55.785C31.4534 58.9032 29.2112 61.8525 28.6527 60.4622C28.4237 59.9599 28.7532 58.6259 29.4122 57.1231C29.7095 56.4561 30.1033 55.3993 29.6091 54.676L28.0942 55.6765L26.9048 56.4963C23.1317 58.9112 20.8896 61.0047 18.7198 61.5873C16.9437 62.0655 15.2159 61.6034 12.7769 58.9192C11.4549 57.4646 10.157 55.8935 9.10425 54.226L9.0721 54.1737H9.13238C9.65072 54.1979 10.1731 54.1818 10.6914 54.1456C12.359 54.0211 14.0024 53.6675 15.5293 52.9683C17.0522 52.2731 18.4184 51.2565 19.1819 49.7296C19.4471 49.1992 19.6239 48.6206 19.6239 48.0219C19.6239 45.9043 17.8759 45.0123 16.0437 44.6105C13.9502 44.1484 11.8125 43.9435 9.67081 43.9435C6.94247 43.9435 4.11768 44.2287 1.51792 45.0886C1.18843 45.2052 0.89108 45.4181 0.633916 45.6552C0.408898 45.8521 0.103516 46.1695 0.103516 46.491C0.103516 46.6155 0.179862 46.6517 0.29639 46.6517C0.412917 46.6517 0.533462 46.6196 0.637935 46.5914C3.99312 45.3739 7.47689 44.7391 11.045 44.7391C12.5157 44.7391 14.0064 44.8395 15.453 45.1208C16.9437 45.4101 18.2858 46.1093 18.2858 47.7969C18.2858 48.1384 18.2255 48.4719 18.1251 48.7974C17.4661 50.5493 15.8307 51.6584 14.1873 52.3857C12.4835 53.1411 10.6794 53.571 8.81896 53.6956H8.79887L7.72601 51.7829L7.73405 51.7669C8.74261 49.9667 9.86369 48.2268 11.0852 46.5673C11.1254 46.5111 11.1736 46.4347 11.1736 46.3624C11.1736 46.1776 10.8843 46.1695 10.7597 46.1695C10.145 46.1695 9.51812 46.3142 9.12836 46.8245C8.40509 48.034 7.66574 49.2675 7.02685 50.5212L7.00274 50.5654L6.97059 50.5252C6.64512 50.0873 6.21919 49.7738 5.65665 49.7738C5.17446 49.7738 4.7847 49.9788 4.46726 50.3364C4.14983 50.694 3.96499 51.1079 3.96499 51.5901C3.96499 52.5544 4.66817 53.1491 5.47583 53.5389L5.50396 53.5509L5.4919 53.5791C4.5637 55.5439 2.5305 59.8956 2.5305 62.0815C2.5305 62.407 2.57872 62.9093 3.00866 62.9093C3.24976 62.9093 3.29396 62.6963 3.29396 62.4954C3.29396 62.4191 3.29396 62.3467 3.29396 62.2784C3.27788 62.194 3.26181 62.1056 3.26181 62.0172C3.26181 60.0724 5.61245 55.6123 6.51654 53.9005L6.52859 53.8764L6.5527 53.8844C6.96658 54.001 7.39652 54.0693 7.82245 54.1054H7.83852L7.84656 54.1215C9.02791 55.998 10.378 57.762 11.8607 59.4094C15.015 62.9133 17.1888 63.2066 19.4029 62.194C22.1031 60.9605 24.8194 58.7545 27.4633 56.9463L27.4553 56.9543ZM46.9917 60.6832C46.6944 61.965 46.3006 63.3553 45.6738 64.5246C44.8179 66.1399 43.8615 64.9706 44.4522 63.2428C44.8822 61.8525 45.738 61.0167 46.9917 60.6832Z" fill="#412440"/>
<path fill-rule="evenodd" clip-rule="evenodd" d="M59.3643 37.4179C59.4447 37.5826 59.5371 37.7393 59.6375 37.892C59.8786 38.2416 60.2242 38.559 60.614 38.7238C60.7667 38.7881 61.0921 38.8885 61.2448 38.784C61.3292 38.7238 61.3453 38.5751 61.3493 38.4787C61.3493 38.3822 61.3372 38.2898 61.2971 38.2014C61.0479 37.663 59.9831 37.4821 59.3603 37.4179M60.3367 13.9838C60.4934 13.9838 60.6541 13.9959 60.8149 14.0119C60.8591 14.0119 60.8993 14.0039 60.9435 13.9999C60.9595 13.9717 60.9796 13.9517 61.0158 13.9396C61.1002 13.9115 61.1926 13.8753 61.2649 13.8191C61.1404 13.6945 61.0158 13.5739 60.8912 13.4534C60.5296 13.1078 60.1639 12.7663 59.7943 12.4328C59.7822 12.4489 59.7621 12.4609 59.738 12.4489C59.5532 12.3524 59.3603 12.268 59.1554 12.2359C58.9303 12.1997 58.6933 12.26 58.4763 12.3122C58.2633 12.3605 58.0504 12.4127 57.8334 12.4328C57.7169 12.4408 57.6043 12.4489 57.4878 12.4408C57.4275 12.4368 57.3633 12.4328 57.303 12.4207C57.3472 12.7301 57.3994 13.0355 57.5039 13.3288C57.5601 13.4855 57.6325 13.6262 57.7691 13.7226C57.9097 13.8191 58.0785 13.8673 58.2392 13.9034C58.9303 14.0682 59.6375 13.9758 60.3407 13.9878L60.3367 13.9838ZM58.3839 14.5584C58.0504 14.6548 57.7289 14.7955 57.4436 15.0084C57.1342 15.2375 56.9052 15.5509 56.6721 15.8563C56.4109 16.1978 56.1498 16.5434 55.8846 16.8849C55.8283 16.9573 55.772 17.0336 55.7158 17.1059C56.2502 16.8568 56.7083 16.463 57.2307 16.1898C57.8374 15.8683 58.5084 15.788 59.1835 15.8161C60.2965 15.8643 61.3252 16.2782 62.3498 16.7041C62.1087 16.463 61.9078 16.1536 61.6788 15.9326C61.3252 15.5951 60.8952 15.358 60.5015 15.0767C60.2483 14.9683 59.9992 14.8517 59.742 14.7513C59.4768 14.6468 59.079 14.5624 58.85 14.4539C58.6933 14.4821 58.5366 14.5142 58.3839 14.5584ZM55.7761 17.4394C55.8484 17.4796 55.9207 17.5198 55.9931 17.552C56.4109 17.7408 56.873 17.8051 57.3311 17.8091C57.3311 17.7609 57.8053 17.2064 57.8695 17.13C58.2874 16.6559 58.6491 16.3827 59.2357 16.1416C59.3482 16.0974 59.4607 16.0612 59.5773 16.0291C58.8902 15.9608 58.199 16.0291 57.5521 16.3344C56.9213 16.6358 56.4069 17.1461 55.768 17.4354L55.7761 17.4394ZM57.9379 17.789C58.6893 17.7287 59.4326 17.5761 60.188 17.6082C60.5617 17.6243 60.9234 17.6846 61.2729 17.8091C61.5743 17.9176 61.8596 18.0783 62.1328 18.2391C62.6713 18.5565 63.2097 18.9101 63.8205 19.0588C63.9651 19.0949 64.1098 19.1231 64.2585 19.1391C64.2585 19.1391 64.2585 19.1311 64.2585 19.1271C64.162 18.6047 64.15 18.01 64.6402 17.6926C64.6643 17.6765 64.6924 17.6604 64.7165 17.6484C64.6281 17.6323 64.5397 17.6122 64.4513 17.5881C64.1218 17.5077 63.8004 17.4033 63.4789 17.2867C62.828 17.0497 62.1971 16.7644 61.5502 16.5273C61.0278 16.3344 60.4773 16.1697 59.9188 16.0813C59.6858 16.1175 59.4567 16.1777 59.2397 16.2742C58.7696 16.4791 58.2633 16.9532 57.9499 17.3551C57.8374 17.4997 57.7289 17.6805 57.6084 17.8131C57.7169 17.8131 57.8213 17.8051 57.9298 17.7971L57.9379 17.789ZM64.6281 19.3642C64.7005 19.6535 64.7848 19.9428 64.8813 20.224C65.267 21.3411 65.8537 22.3818 66.593 23.2939C66.8261 23.5833 67.0792 23.8565 67.3444 24.1177C67.1395 23.6636 66.9547 23.1975 66.7979 22.7234C66.6412 22.2492 66.4966 21.763 66.4122 21.2648C66.3238 20.7585 66.2997 20.2482 66.3158 19.7338C66.3238 19.4646 66.3439 19.1994 66.3841 18.9342C66.4122 18.7494 66.4403 18.5565 66.4926 18.3717C66.2314 18.3395 65.9702 18.3355 65.713 18.3676C65.4358 18.3998 65.1344 18.4641 64.9054 18.6409C64.7005 18.7976 64.6442 19.0186 64.6 19.2516C64.608 19.2918 64.6201 19.328 64.6281 19.3682V19.3642ZM67.7864 24.4713C67.8186 24.5235 67.8507 24.5717 67.8869 24.624C68.2405 24.9293 68.6142 25.2187 68.9477 25.5481C68.9557 25.5481 68.9638 25.5562 68.9718 25.5602C69.1526 25.6807 69.3374 25.8013 69.5223 25.9138C69.6468 25.9901 69.7714 26.0705 69.9 26.1468C69.9442 25.7691 69.9844 25.3914 70.0246 25.0137C70.0929 24.3266 70.1813 23.6355 70.0567 22.9484C69.9402 22.3095 69.7513 21.6907 69.4741 21.104C69.1968 20.5174 68.8472 19.983 68.4856 19.4526C68.4052 19.336 68.3249 19.2195 68.2445 19.103C68.2445 19.103 68.2445 19.103 68.2405 19.103C67.9753 18.9664 67.7342 18.7896 67.465 18.661C67.1998 18.5364 66.9225 18.448 66.6372 18.3958C66.6051 18.5525 66.5609 18.7052 66.5368 18.8659C66.4966 19.099 66.4725 19.332 66.4604 19.5651C66.4323 20.0472 66.4805 20.5375 66.5528 21.0116C66.7015 21.9961 67.0149 22.9162 67.4409 23.8042C67.5494 24.0333 67.6619 24.2623 67.7945 24.4753L67.7864 24.4713ZM70.3822 26.1468C70.4706 26.0826 70.559 26.0142 70.6474 25.9459C70.7599 25.8575 70.8724 25.7732 70.9889 25.6928C71.0653 25.5843 71.1416 25.4758 71.222 25.3713C71.2782 25.295 71.3305 25.2186 71.3867 25.1423C71.4229 24.9414 71.4631 24.7405 71.4832 24.5396C71.5113 24.2704 71.5274 24.0011 71.5434 23.7319C71.5274 23.5551 71.5113 23.3743 71.4912 23.1975C71.4229 22.639 71.3385 22.0885 71.234 21.534C71.1336 20.9996 71.017 20.4651 70.8322 19.9508C70.7398 19.6936 70.6393 19.4405 70.5067 19.2034C70.3741 18.9623 70.2014 18.8096 69.9603 18.6851C69.6951 18.5485 69.4258 18.4239 69.1566 18.3034C68.9879 18.227 68.807 18.1627 68.6343 18.0904C68.6182 18.0984 68.6021 18.1065 68.5901 18.1145C68.5418 18.1426 68.5017 18.1748 68.4655 18.2109C68.4534 18.2913 68.4454 18.3717 68.4374 18.452C68.4253 18.6208 68.4293 18.7855 68.4575 18.9543C68.4615 18.9864 68.4494 19.0226 68.4253 19.0467C68.4494 19.0829 68.4695 19.119 68.4936 19.1552C68.6785 19.4405 68.8512 19.7298 69.024 20.0191C69.3696 20.6018 69.6629 21.2085 69.9161 21.8394C70.4505 23.1854 70.2536 24.6722 70.1491 26.0826C70.1451 26.1428 70.1411 26.2031 70.1331 26.2634C70.2255 26.2795 70.3018 26.2031 70.3782 26.1468H70.3822ZM71.6117 22.9243C71.7001 23.4547 71.7644 23.9891 71.7845 24.5235C71.9372 24.2583 72.0658 23.977 72.1502 23.6676C72.323 23.0127 72.3993 22.3135 72.4194 21.6384C72.4395 20.9594 72.3953 20.2803 72.2908 19.6093C72.2386 19.2637 72.1663 18.9262 72.0779 18.5886C72.0578 18.5123 72.0377 18.436 72.0136 18.3596C71.9452 18.1908 71.8649 18.0261 71.7765 17.8694C71.7684 17.8573 71.7564 17.8453 71.7484 17.8332C71.7242 17.8493 71.7001 17.8533 71.668 17.8493C70.9648 17.7408 70.2576 17.7287 69.5504 17.8453C69.3736 17.8734 69.2008 17.9096 69.028 17.9538C68.9557 17.9739 68.8794 17.994 68.803 18.0181C68.8995 18.0582 68.9959 18.1024 69.0883 18.1426C69.3535 18.2551 69.6107 18.3797 69.8678 18.5043C70.0808 18.6128 70.2938 18.7212 70.4505 18.9101C70.6112 19.111 70.7197 19.3682 70.8202 19.6052C71.0331 20.1156 71.1697 20.658 71.2822 21.2005C71.3385 21.4777 71.3907 21.755 71.439 22.0322C71.4912 22.3296 71.5555 22.6229 71.6037 22.9202L71.6117 22.9243ZM74.095 17.0497C75.1839 16.7845 76.2367 16.3666 77.2774 15.9527C78.1574 15.5991 79.0655 15.1852 79.7124 14.4459C79.8289 14.3133 79.9575 14.1646 79.9816 13.9918C79.1458 14.1043 78.302 14.1927 77.4622 14.2771C76.5581 14.3655 75.654 14.4499 74.758 14.5906C73.1708 14.8397 71.5916 15.2375 70.1612 16.0009C69.4459 16.3827 68.7789 16.8447 68.1882 17.4073C68.2365 17.4435 68.2927 17.4636 68.361 17.4676C68.4856 17.4756 68.6142 17.4515 68.7387 17.4354C68.8713 17.4194 69.012 17.4113 69.1406 17.3751C69.1526 17.3751 69.1606 17.3751 69.1727 17.3751C69.4258 17.3269 69.683 17.2988 69.9402 17.2827C70.0527 17.2667 70.1612 17.2546 70.2737 17.2466C70.559 17.2225 70.8483 17.2144 71.1336 17.2626C71.1858 17.2707 71.234 17.2827 71.2863 17.2948C71.66 17.3068 72.0336 17.3189 72.4033 17.2948C72.9739 17.2667 73.5405 17.1863 74.099 17.0497H74.095ZM72.9136 19.3682C72.9739 19.5932 73.0543 19.8182 73.1668 20.0231C73.223 20.1276 73.2873 20.2281 73.3556 20.3285C73.3998 20.3968 73.4521 20.4651 73.4922 20.5375C73.5244 20.5736 73.5525 20.6098 73.5847 20.6419C73.8298 20.9152 74.1271 21.1161 74.4446 21.2728C74.5129 21.2969 74.5812 21.317 74.6535 21.3371C74.7057 21.2406 74.762 21.1442 74.8102 21.0478C74.8624 20.9473 74.8946 20.8388 74.9227 20.7263C74.975 20.5093 75.0111 20.2803 75.0272 20.0593C75.0272 20.0513 75.0312 20.0472 75.0352 20.0392C75.0312 19.9267 75.0272 19.8142 75.0151 19.7017C74.987 19.4003 74.8986 19.1311 74.766 18.8619C74.7057 18.7413 74.6495 18.6168 74.5892 18.4962C74.541 18.3998 74.4727 18.3074 74.4647 18.1989C74.4245 18.1868 74.3803 18.1748 74.3401 18.1627C74.2075 18.1306 74.0709 18.0984 73.9383 18.0743C73.7454 18.0422 73.5525 17.998 73.3556 17.9899C73.2672 17.9899 73.1788 17.9899 73.0904 18.002C73.0342 18.01 72.9779 18.0261 72.9177 18.0382C72.9056 18.0502 72.8895 18.0582 72.8775 18.0703C72.8453 18.2672 72.8172 18.4641 72.8172 18.665C72.8172 18.898 72.8534 19.1391 72.9096 19.3642L72.9136 19.3682ZM75.0634 21.4134C75.0513 21.325 75.0593 21.2286 75.0553 21.1402C75.0513 21.0357 75.0473 20.9312 75.0433 20.8268C75.0192 20.9192 74.995 21.0076 74.9709 21.1C74.9468 21.1964 74.9147 21.2929 74.8785 21.3853C74.9388 21.3933 74.9991 21.4054 75.0634 21.4134ZM75.2241 20.6259C75.2482 20.7826 75.2643 20.9433 75.2803 21.1C75.2884 21.2045 75.3245 21.3331 75.3085 21.4456C75.9674 21.53 76.6224 21.6264 77.2693 21.767C77.4702 21.8112 77.6671 21.8554 77.864 21.9117C77.9283 21.9278 77.9966 21.9478 78.0569 21.972C77.9645 21.7469 77.852 21.534 77.7274 21.325C77.4421 20.8469 77.1287 20.3687 76.7831 19.9388C76.4376 19.5088 76.0518 19.115 75.6138 18.7855C75.2924 18.5404 74.9428 18.3676 74.5731 18.2431C74.5972 18.3275 74.6053 18.4199 74.6374 18.5043C74.6937 18.6489 74.774 18.7735 74.8464 18.9101C74.975 19.1552 75.0634 19.4043 75.1076 19.6816C75.1558 19.995 75.1718 20.3165 75.2201 20.6299L75.2241 20.6259ZM78.3784 22.0885C78.3462 21.755 78.2779 21.4255 78.1855 21.104C78.085 20.7504 77.9605 20.4049 77.8279 20.0633C77.7113 19.762 77.5988 19.4445 77.4019 19.1833C77.3618 19.1311 77.3216 19.0869 77.2774 19.0427C76.9439 18.9262 76.6184 18.7855 76.2768 18.6851C76.084 18.6288 75.8871 18.5886 75.6942 18.5364C75.5938 18.5083 75.4893 18.4802 75.3888 18.448C75.4491 18.4802 75.5054 18.5163 75.5656 18.5525C76.0398 18.8458 76.4416 19.2396 76.8073 19.6655C77.1809 20.1035 77.5386 20.5616 77.852 21.0478C78.0609 21.3732 78.2538 21.7228 78.3824 22.0925L78.3784 22.0885ZM76.6988 18.5404C76.4858 18.3114 76.3693 17.9899 76.1 17.8212C75.8429 17.6604 75.5254 17.6363 75.2361 17.6122C75.0232 17.5962 74.8102 17.5881 74.5972 17.5841C74.2436 17.6323 73.89 17.6845 73.5445 17.777C73.653 17.793 73.7575 17.8172 73.8619 17.8413C74.2718 17.9457 74.6816 18.0462 75.0875 18.1667C75.2884 18.227 75.4853 18.2913 75.6862 18.3556C75.879 18.4199 76.0599 18.4962 76.2487 18.5726C76.522 18.6811 76.8073 18.7654 77.0845 18.8659C76.9519 18.7614 76.8193 18.661 76.7028 18.5404H76.6988ZM79.7084 13.4534C79.5396 13.4092 79.3749 13.3007 79.2342 13.2003C79.0775 13.0918 78.9329 12.9551 78.8284 12.7944C78.7882 12.7341 78.7601 12.6658 78.732 12.5975C77.0524 12.4448 75.3366 12.7221 73.7735 13.373C72.8976 13.7387 72.0537 14.1887 71.1979 14.6026C70.78 14.8075 70.354 15.0044 69.9562 15.2535C69.6308 15.4545 69.3214 15.6915 69.0401 15.9567C68.7227 16.2541 68.4414 16.5916 68.1882 16.9492C68.1682 16.9774 68.1561 17.0015 68.136 17.0296C68.1842 17.1099 68.2284 17.1984 68.2164 17.2787C69.2852 16.2862 70.5951 15.5991 71.9613 15.137C73.6088 14.5825 75.3326 14.3253 77.0524 14.1285C78.0207 14.02 78.9891 13.9276 79.9535 13.795C79.9012 13.6583 79.8088 13.5539 79.7044 13.4534H79.7084ZM78.6154 12.1716C78.6114 12.1435 78.6074 12.1194 78.6034 12.0912C78.5953 12.0591 78.5873 12.0269 78.5833 11.9908C78.5552 11.8381 78.5431 11.6814 78.5311 11.5247C78.1132 11.4684 77.6953 11.4202 77.2774 11.376C76.8153 11.3278 76.3411 11.2675 75.875 11.2876C75.4129 11.3037 74.9629 11.4363 74.5209 11.5608C74.099 11.6814 73.6771 11.81 73.2632 11.9546C71.7082 12.5051 70.2094 13.2967 69.1084 14.5865C68.8271 14.916 68.578 15.2696 68.365 15.6473C68.2043 15.9326 68.0878 16.23 67.9793 16.5353C67.9954 16.6479 68.0195 16.7604 68.0637 16.8689C68.2566 16.5796 68.4735 16.3063 68.7026 16.0572C68.9718 15.7679 69.2651 15.5067 69.5825 15.2736C69.9522 15.0044 70.35 14.7915 70.7518 14.5865C71.6198 14.1445 72.4837 13.6824 73.3717 13.2806C74.2195 12.8949 75.1076 12.6176 76.0197 12.4609C76.8876 12.3122 77.7756 12.2721 78.6516 12.3363C78.6395 12.2841 78.6275 12.2279 78.6195 12.1756L78.6154 12.1716ZM78.3904 10.6768C78.3904 10.6768 78.3864 10.6487 78.3904 10.6326C78.3824 10.6246 78.3703 10.6125 78.3623 10.6045C78.2699 10.5282 78.1493 10.488 78.0408 10.4438C77.9082 10.3915 77.7756 10.3393 77.643 10.2911C77.3859 10.2027 77.1247 10.1344 76.8595 10.0862C76.3331 9.98973 75.7786 9.98169 75.2602 10.1304C74.7138 10.2871 74.1995 10.5563 73.6851 10.7934C72.7127 11.2394 71.7122 11.6492 70.784 12.1837C70.3581 12.4288 69.9522 12.706 69.5825 13.0355C69.2812 13.3047 69.02 13.6141 68.795 13.9517C68.7186 14.1928 68.6061 14.4218 68.4936 14.6468C68.349 14.9441 68.2083 15.2415 68.1039 15.5549C68.0275 15.788 67.9753 16.025 67.9672 16.2701C68.0436 16.0773 68.132 15.8884 68.2284 15.7076C68.4012 15.3701 68.6102 15.0486 68.8392 14.7473C69.0441 14.4821 69.2651 14.2369 69.5022 14.0039C69.8196 13.6945 70.1652 13.4132 70.5308 13.1601C71.2702 12.6498 72.0738 12.252 72.9056 11.9345C73.3235 11.7778 73.7454 11.6372 74.1713 11.5086C74.6133 11.376 75.0593 11.2394 75.5134 11.163C76.0398 11.0787 76.5621 11.1188 77.0885 11.163C77.5667 11.2032 78.0449 11.2555 78.519 11.3197C78.4989 11.0947 78.4547 10.8898 78.3944 10.6728L78.3904 10.6768ZM75.2723 8.74811C75.4812 8.43067 75.646 8.07707 75.7545 7.7074C75.8469 7.38594 75.8791 7.06047 75.9192 6.735C75.5496 6.83545 75.1678 6.8676 74.7941 6.95198C74.4004 7.04038 74.0749 7.27343 73.7816 7.55069C73.2351 8.06502 72.773 8.69185 72.3832 9.33878C72.2747 9.5196 72.1743 9.70846 72.0738 9.89329C71.9935 10.042 71.9051 10.1906 71.8247 10.3433C71.8086 10.3835 71.7885 10.4277 71.7725 10.4679C71.889 10.6085 72.0377 10.721 72.2104 10.7934C72.3672 10.8215 72.5359 10.8215 72.6645 10.9179C72.9779 10.7612 73.2873 10.5884 73.5806 10.3956C74.2396 9.9616 74.8343 9.41513 75.2723 8.74409V8.74811ZM75.9554 6.45373C75.9875 6.23674 76.0438 6.02378 76.1282 5.82287C76.2126 5.62196 76.313 5.42909 76.3934 5.22416C76.5581 4.81431 76.6104 4.37632 76.6505 3.93432C76.6787 3.61287 76.6947 3.29141 76.7349 2.97398C76.7309 2.86147 76.7349 2.75298 76.7389 2.64047C76.7389 2.58823 76.7349 2.536 76.7229 2.4918C76.7148 2.45563 76.6988 2.41947 76.6827 2.3833C76.6787 2.37527 76.6747 2.36723 76.6706 2.36321C76.6666 2.35517 76.6626 2.35116 76.6546 2.34312C76.6546 2.34312 76.6546 2.3391 76.6465 2.33509C76.6385 2.33107 76.6345 2.32303 76.6264 2.31901C76.6264 2.31901 76.6144 2.31098 76.6104 2.31098C76.5983 2.30294 76.5903 2.29892 76.5782 2.2949C76.5782 2.2949 76.5662 2.2949 76.5621 2.29089C76.5541 2.29089 76.5461 2.29089 76.534 2.29089C76.534 2.29089 76.534 2.29089 76.53 2.29089C76.5179 2.29089 76.5099 2.29089 76.4979 2.29089C76.4898 2.29089 76.4818 2.29089 76.4737 2.29089C76.2085 2.51189 75.9554 2.74494 75.7183 3.00211C75.204 3.56063 74.7781 4.21158 74.4004 4.87458C74.099 5.40096 73.8177 5.9394 73.5485 6.48587C73.4963 6.66669 73.428 6.85554 73.3074 6.98412C73.0221 7.58283 72.7529 8.18958 72.4877 8.79231C72.5882 8.65167 72.6886 8.51104 72.7931 8.37442C73.0342 8.06502 73.2994 7.77169 73.5806 7.50247C73.8619 7.22924 74.1713 7.01225 74.549 6.89974C74.7741 6.83144 75.0111 6.79527 75.2442 6.75509C75.4692 6.71491 75.6942 6.67071 75.9232 6.65463C75.9313 6.59436 75.9393 6.53007 75.9474 6.4698L75.9554 6.45373ZM75.0794 3.03827C74.7138 3.27534 74.3441 3.50036 73.9865 3.74949C73.8941 3.81378 73.8057 3.88209 73.7213 3.95441C73.7333 4.18345 73.8217 4.40043 73.8217 4.63349C73.8217 4.90673 73.7695 5.188 73.7374 5.45722C73.7253 5.54562 73.7173 5.63804 73.7052 5.72644C74.1954 4.77814 74.7419 3.86601 75.4451 3.06238C75.6701 2.80521 75.9112 2.56814 76.1643 2.34312C75.8027 2.57216 75.4411 2.80521 75.0794 3.03827ZM73.7052 4.52901C73.6851 4.38436 73.6128 4.22765 73.5927 4.07094C73.5003 4.15532 73.4159 4.24774 73.3355 4.34418C73.3355 4.3482 73.3396 4.35221 73.3396 4.35623C73.3677 4.50892 73.4521 4.65759 73.5324 4.78618C73.5766 4.85448 73.6168 4.9228 73.653 4.99915C73.665 5.02727 73.6771 5.0554 73.6851 5.08352C73.7133 4.89869 73.7293 4.70581 73.7052 4.52901ZM73.1788 4.55714C72.781 5.15987 72.5841 5.87912 72.2627 6.52203C72.1421 6.76714 71.9935 6.99216 71.8448 7.21718C71.8528 7.23727 71.8569 7.26138 71.8528 7.28951C71.7805 7.59891 71.6961 7.90429 71.6198 8.20967C71.5434 8.51505 71.4711 8.82847 71.4671 9.14591C71.459 9.45531 71.4872 9.78882 71.5675 10.0862C71.5796 10.1344 71.5957 10.1826 71.6157 10.2308C71.7283 9.9616 71.8448 9.69238 71.9613 9.42316C72.3109 8.62355 72.6806 7.83196 73.0543 7.04842C73.1869 6.77116 73.3195 6.49792 73.4561 6.22469C73.4561 6.21263 73.4641 6.20058 73.4681 6.18852C73.5364 5.92734 73.5967 5.66214 73.6369 5.39293C73.6449 5.35676 73.649 5.3206 73.657 5.28042C73.649 5.28042 73.6409 5.26836 73.6409 5.25631C73.6208 5.17996 73.5847 5.10763 73.5485 5.03932C73.5083 4.967 73.4641 4.89868 73.4159 4.83038C73.3436 4.7259 73.2672 4.62947 73.215 4.51294C73.2029 4.52901 73.1909 4.54107 73.1788 4.56116V4.55714ZM70.8965 9.68033C70.8443 9.22225 70.7559 8.7682 70.6634 8.31816C70.6152 8.08913 70.563 7.86009 70.5107 7.63105C70.2255 8.03287 69.9522 8.44675 69.7312 8.88473C69.4982 9.34682 69.3013 9.82498 69.1365 10.3152C69.0441 10.5884 68.9557 10.8697 68.8954 11.155C68.8392 11.4282 68.791 11.7015 68.7387 11.9747C68.6825 12.2761 68.6182 12.5774 68.5539 12.8748C68.6704 12.8426 68.7829 12.7944 68.8874 12.7462C68.9758 12.6859 69.0722 12.6257 69.1687 12.5975C69.3616 12.489 69.5504 12.3765 69.7473 12.2721C69.892 12.1957 70.0406 12.1153 70.1853 12.039C70.3098 11.9707 70.4465 11.9225 70.571 11.8622C70.7157 11.593 70.792 11.3037 70.8402 11.0023C70.8563 10.7532 70.8764 10.5041 70.8925 10.2509C70.8925 10.2228 70.8925 10.1947 70.8965 10.1665C70.8965 10.0661 70.8965 9.9616 70.8965 9.86115C70.8965 9.80087 70.8965 9.7406 70.8965 9.68033ZM70.7036 3.93031C70.7036 3.93031 70.6916 3.9062 70.6835 3.89414C70.2255 4.18747 69.7835 4.50892 69.4299 4.93485C69.1446 5.2764 68.9517 5.6742 68.8231 6.10012C68.6825 6.55418 68.5619 7.02029 68.4534 7.4864C68.2405 8.41861 68.0476 9.35887 67.9391 10.3112C67.8467 11.1148 67.8105 11.9225 67.8346 12.7261C67.8708 12.7583 67.907 12.7904 67.9472 12.8185C67.9873 12.8426 68.0315 12.8627 68.0798 12.8748C68.1521 12.8949 68.2244 12.9029 68.2967 12.9029C68.365 12.6257 68.4334 12.3524 68.5017 12.0752C68.574 11.7899 68.6584 11.5126 68.7428 11.2313C68.8231 10.9621 68.8954 10.6889 68.9798 10.4237C69.1406 9.92946 69.3374 9.45129 69.5745 8.99322C69.8397 8.47889 70.133 7.9726 70.4786 7.51453C70.4666 7.47033 70.4585 7.42612 70.4505 7.38594C70.4424 7.37389 70.4344 7.3538 70.4304 7.33773C70.4143 7.25334 70.3982 7.16896 70.3862 7.08458C70.3299 6.81938 70.2777 6.55418 70.2456 6.28496C70.2335 6.25282 70.2255 6.22067 70.2255 6.18852C70.2214 6.14031 70.2214 6.09611 70.2255 6.04789C70.1772 5.48535 70.2054 4.89065 70.4264 4.3723C70.4947 4.20756 70.5911 4.05889 70.7036 3.93031ZM70.4224 3.81378C70.3139 3.81378 70.2054 3.82181 70.0969 3.82181C70.0446 3.82181 69.9884 3.82181 69.9362 3.82583C69.9161 3.82583 69.9 3.82583 69.8799 3.82583C69.8558 3.83387 69.8357 3.84592 69.8116 3.85396C69.2249 4.12318 68.6423 4.42454 68.1039 4.78216C68.0275 4.8344 67.9512 4.88663 67.8788 4.93887C67.8788 4.93887 67.8788 4.93887 67.8788 4.94289C67.6217 5.30855 67.3886 5.67821 67.1998 6.08807C67.0109 6.49391 66.8743 6.91983 66.7457 7.34978C66.4966 8.20565 66.4685 9.11778 66.6051 9.99776C66.6533 10.3072 66.7256 10.6125 66.818 10.9139C66.8422 10.9621 66.8663 11.0103 66.8904 11.0586C66.8984 11.0586 66.9105 11.0626 66.9185 11.0706C67.035 11.1671 67.1033 11.3238 67.1636 11.4604C67.2319 11.6091 67.2882 11.7658 67.3484 11.9185C67.4288 12.1153 67.5212 12.3122 67.6418 12.489C67.6418 11.8381 67.6739 11.1871 67.7503 10.5322C67.8668 9.55576 68.0516 8.57934 68.3008 7.63105C68.4213 7.16494 68.5378 6.69884 68.6785 6.24076C68.807 5.82287 68.9638 5.41703 69.2209 5.06343C69.5866 4.55714 70.0848 4.1714 70.6112 3.84191C70.5549 3.8178 70.4907 3.81378 70.4304 3.81378H70.4224ZM66.7216 6.03182C66.3559 6.51802 66.1189 7.11271 66.0184 7.71945C65.922 8.31012 65.9541 8.92089 66.1149 9.49951C66.1792 9.6522 66.2354 9.81293 66.3118 9.9616C66.4002 10.1344 66.4926 10.3072 66.585 10.4799C66.4564 9.93348 66.4002 9.37093 66.4082 8.80838C66.4162 8.35031 66.4604 7.89223 66.5368 7.43818C66.6091 6.98814 66.7457 6.56222 66.9225 6.14432C67.027 5.89921 67.1516 5.65009 67.2882 5.41703C67.0832 5.60589 66.8904 5.81081 66.7216 6.03583V6.03182ZM65.4197 9.39503C64.9697 8.83249 64.4393 8.33825 63.8004 8.0168C64.5719 8.65569 65.1786 9.48343 65.6648 10.3755C65.9983 10.9822 66.2595 11.6332 66.4886 12.2881C66.7296 12.9712 66.9426 13.6664 67.1395 14.3655C67.2801 14.8638 67.4007 15.3701 67.473 15.8844C67.4529 15.2696 67.4248 14.6548 67.3565 14.0481C67.2641 13.1922 67.0792 12.3484 66.7457 11.5568C66.4162 10.7773 65.9421 10.05 65.4197 9.39906V9.39503ZM62.9083 7.68731C62.9083 7.68731 62.8963 7.67526 62.8883 7.66722C62.7396 7.62302 62.5869 7.57882 62.4342 7.53863C62.0163 7.42613 61.5944 7.32567 61.1725 7.24129C60.3407 7.07252 59.5049 6.96403 58.6611 6.89171C59.071 7.07253 59.4768 7.26138 59.8666 7.48238C60.3287 7.74356 60.7546 8.05296 61.1524 8.40656C61.8877 9.04947 62.5909 9.73658 63.2499 10.4599C64.5437 11.8783 65.6447 13.5056 66.2997 15.3419C66.4845 15.8563 66.6372 16.3987 66.8462 16.9131C66.9105 16.8809 66.9748 16.8448 67.035 16.7965C67.2279 16.6398 67.3525 16.4228 67.4409 16.1858C67.3806 15.6714 67.2641 15.1652 67.1234 14.6669C66.9265 13.9758 66.7096 13.2846 66.4805 12.6056C66.0466 11.3238 65.5121 10.0259 64.5679 9.05349C64.0616 8.53113 63.5151 8.08511 62.9164 7.68731H62.9083ZM58.3437 7.05645C58.3517 7.0886 58.3638 7.11672 58.3678 7.12878C58.42 7.31763 58.5004 7.49846 58.5968 7.66722C58.6209 7.7074 58.6491 7.74758 58.6772 7.79178C58.6973 7.79178 58.7174 7.80384 58.7335 7.82393C59.2558 8.44273 59.8425 8.97715 60.4532 9.49951C61.0479 10.0098 61.6426 10.5201 62.0927 11.1791C63.0048 12.5051 63.266 14.1686 64.1178 15.5308C64.2143 15.6875 64.3228 15.8322 64.4393 15.9728C64.6924 16.1858 64.9456 16.3947 65.2108 16.5916C65.3353 16.684 65.4599 16.7724 65.5885 16.8608H65.5965C65.9501 16.9773 66.376 17.0738 66.7377 16.9532C66.589 16.5956 66.4685 16.2219 66.3479 15.8563C66.0385 14.9321 65.6367 14.0642 65.1264 13.2404C64.6201 12.4167 64.0174 11.6613 63.3825 10.942C62.7396 10.2147 62.0485 9.53567 61.3212 8.89678C60.8792 8.50702 60.4251 8.13734 59.9188 7.84C59.4125 7.54265 58.8781 7.29755 58.3437 7.05244V7.05645ZM60.8109 10.6367C61.3372 11.6452 61.5301 12.8708 62.0565 13.8914C62.2012 14.1164 62.3498 14.3334 62.5105 14.5463C62.5306 14.5584 62.5548 14.5705 62.5748 14.5825C62.8883 14.7633 63.1896 14.9683 63.4789 15.1893C63.6959 15.354 63.9089 15.5308 64.1178 15.7036C63.72 15.1009 63.4388 14.4218 63.1776 13.7467C62.8842 12.9913 62.5989 12.2198 62.177 11.5287C61.7511 10.8335 61.1685 10.2831 60.5617 9.76069C60.2764 9.51558 59.9751 9.27851 59.6817 9.0334C60.1037 9.53165 60.5095 10.054 60.8149 10.6407L60.8109 10.6367ZM59.738 14.3575C59.6255 14.3655 59.513 14.3736 59.4045 14.3816C59.304 14.3896 59.1996 14.4017 59.0991 14.4178C59.3161 14.5062 59.5331 14.5946 59.7541 14.679C59.9027 14.7352 60.0514 14.7915 60.2001 14.8477C60.0273 14.7031 59.8706 14.5463 59.742 14.3575H59.738ZM61.0078 15.2857C61.2247 15.4223 61.4417 15.5629 61.6386 15.7357C61.8596 15.9286 62.0284 16.1657 62.2092 16.3947C62.3418 16.5595 62.4864 16.7202 62.6592 16.8407C62.8039 16.901 62.9526 16.9613 63.0972 17.0175C63.4629 17.1622 63.8325 17.2988 64.2143 17.4073C64.4353 17.4716 64.6723 17.5399 64.9094 17.572C65.0782 17.5158 65.255 17.4997 65.4358 17.5118C64.7728 17.0015 64.1701 16.4108 63.5312 15.8724C63.4227 15.788 63.3182 15.7036 63.2137 15.6112C63.0128 15.4504 62.8079 15.2978 62.5949 15.1571C61.9962 14.7593 61.3372 14.458 60.626 14.3776C60.397 14.3495 60.1679 14.3454 59.9349 14.3535C60.188 14.7473 60.622 15.0366 61.0118 15.2857H61.0078ZM60.3367 11.6533C59.9389 11.2555 59.4889 10.938 59.0067 10.6849C59.0629 10.8135 59.1152 10.9461 59.1674 11.0787C59.2799 11.3639 59.3844 11.6492 59.4768 11.9426C59.4969 11.9586 59.517 11.9747 59.5331 11.9908C59.9751 12.3846 60.409 12.7904 60.835 13.2043C61.0077 13.369 61.1805 13.5378 61.3533 13.7025C61.3654 13.6744 61.3734 13.6423 61.3774 13.6101C61.3855 13.5217 61.3774 13.4253 61.3613 13.3329C61.3091 13.1962 61.2529 13.0636 61.1926 12.931C60.9796 12.4529 60.7024 12.0229 60.3367 11.6573V11.6533ZM58.8138 10.6326C58.7937 10.6045 58.7736 10.5844 58.7535 10.5603C58.3999 10.3915 58.0263 10.2549 57.6485 10.1384C57.3472 10.046 57.0418 9.96562 56.7324 9.88928C56.7244 9.88928 56.7203 9.88927 56.7123 9.88525C56.7244 9.89329 56.7404 9.90133 56.7525 9.90534C57.2507 10.1866 57.757 10.5 58.2031 10.8697C58.5727 11.1751 58.9424 11.4845 59.304 11.7979C59.2237 11.593 59.1433 11.3881 59.0629 11.1831C59.0107 11.0505 58.9585 10.9179 58.9022 10.7934C58.8741 10.7371 58.846 10.6849 58.8138 10.6326ZM56.2904 9.93749C56.4351 10.05 56.5717 10.1746 56.6842 10.3313C56.9534 10.709 57.086 11.155 57.1704 11.6091C57.2025 11.6251 57.2307 11.6533 57.2588 11.6814C57.303 11.7216 57.3472 11.7577 57.3954 11.7939C57.4878 11.8622 57.5843 11.9265 57.6807 11.9827C57.8173 12.0591 57.962 12.1194 58.1106 12.1636C58.2714 12.1515 58.4321 12.1395 58.5928 12.1194C58.9303 12.0832 59.3081 12.1354 59.6215 12.2921C59.6094 12.2841 59.6014 12.2721 59.5893 12.26C58.7294 11.4925 57.7972 10.7974 56.8087 10.2188C56.64 10.1183 56.4632 10.0259 56.2904 9.93749ZM57.2668 12.2279C57.3391 12.2078 57.4195 12.2078 57.4878 12.1997C57.5923 12.1877 57.6968 12.1837 57.8012 12.1796C57.741 12.1555 57.6767 12.1274 57.6164 12.0993C57.5079 12.047 57.4034 11.9827 57.307 11.9144C57.2749 11.8903 57.2387 11.8622 57.2065 11.8381C57.2266 11.9667 57.2467 12.0993 57.2628 12.2279H57.2668ZM77.0323 1.25419C76.6104 1.4993 76.2045 1.77254 75.7947 2.03774C75.3607 2.31499 74.9267 2.59225 74.4928 2.86951C74.1834 3.0664 73.87 3.25123 73.5766 3.47223C73.4842 3.49634 73.4079 3.55662 73.3597 3.63698V3.64501C73.0623 3.89816 72.8212 4.20354 72.6203 4.53303C72.2346 5.16791 72.0377 5.88315 71.672 6.51802C71.4791 6.85555 71.23 7.15289 71.0412 7.49443C71.017 7.38193 70.997 7.27343 70.9809 7.16092C70.9568 7.02431 70.9407 6.88769 70.9206 6.75107C70.9126 6.63856 70.9086 6.52203 70.9045 6.40953C70.9206 6.3372 70.9166 6.26085 70.8965 6.18852C70.8925 6.09209 70.8885 5.99967 70.8844 5.90324C70.8764 5.51347 71.1979 5.1679 71.4791 4.93887C71.897 4.59732 72.343 4.32408 72.6725 3.88208C72.7609 3.79368 72.8011 3.6651 72.769 3.54456C72.7569 3.4441 72.7087 3.35168 72.6283 3.27936C72.6123 3.25927 72.5962 3.2432 72.5801 3.22712C72.5199 3.16685 72.4515 3.11863 72.3792 3.07042C72.2386 2.98201 72.0778 2.92174 71.9131 2.89361C71.7484 2.86549 71.5796 2.86147 71.4148 2.87352C71.3305 2.88156 71.2461 2.89763 71.1617 2.91772C71.0934 2.93379 71.0251 2.95388 70.9608 2.98603C70.8523 2.99809 70.7438 3.01818 70.6353 3.03827C70.3541 3.09854 70.0808 3.19498 69.8116 3.29945C69.7152 3.3115 69.6268 3.34365 69.5544 3.40794C69.4901 3.43607 69.4299 3.4642 69.3656 3.49233C68.1119 4.06693 66.8823 4.77011 66.0988 5.94744C65.6046 6.68678 65.3514 7.57882 65.3514 8.46683C65.3434 8.4588 65.3353 8.45076 65.3273 8.44273C65.03 8.13333 64.6964 7.86009 64.3308 7.63507C63.945 7.398 63.5191 7.23727 63.0892 7.10065C62.2092 6.8234 61.3051 6.6265 60.393 6.48185C59.9309 6.40952 59.4688 6.34925 59.0067 6.30907C58.8821 6.29702 58.7576 6.28898 58.633 6.28094C58.5125 6.2729 58.404 6.25684 58.2794 6.27291C58.187 6.28496 58.1066 6.31309 58.0343 6.35327C56.2904 6.38542 52.6499 6.46578 51.111 6.45373C49.9336 6.44569 48.3545 6.43765 47.4022 7.23325C46.3896 8.07707 46.2932 9.608 46.3173 10.8295C46.3374 11.7336 46.2088 13.8472 46.0963 14.7473C45.2966 14.9361 44.4609 15.2897 43.9546 15.9648C43.4001 16.7122 43.4081 17.9216 44.3484 18.3556C45.2364 18.7614 46.0038 18.002 46.3816 17.2707C46.6508 16.7443 46.8195 16.1416 46.932 15.563C47.4906 15.4866 48.0692 15.4625 48.6358 15.4745C51.1712 15.5308 53.6866 15.5228 56.2181 15.5188C56.0614 15.7237 55.9087 15.9366 55.756 16.1456C55.6234 16.3224 55.4868 16.5032 55.3542 16.68C55.2859 16.7724 55.2135 16.8648 55.1452 16.9573C55.0407 17.0979 54.9724 17.2305 55.0046 17.4153C55.0488 17.6886 55.2738 17.8212 55.4868 17.9538C55.6475 18.0542 55.8243 18.1346 56.0051 18.1989C57.5521 18.7494 58.9987 18.0462 60.5135 18.2431C61.1564 18.3275 61.7551 18.6529 62.3096 18.9744C62.8119 19.2597 63.3343 19.5369 63.9169 19.6052C63.9209 19.6454 63.933 19.6856 63.9491 19.7218C64.0415 20.0955 64.158 20.4651 64.2946 20.8268C58.9906 20.8388 53.6906 20.7906 48.3866 20.7544C47.2053 20.7464 45.6302 20.7384 44.6778 21.534C43.6653 22.3778 43.5688 23.9087 43.5929 25.1302C43.613 26.0343 43.5929 26.9545 43.4804 27.8546C42.6808 28.0434 41.845 28.397 41.3387 29.0721C40.7842 29.8195 40.7923 31.0289 41.7325 31.4629C42.6205 31.8687 43.388 31.1093 43.7657 30.378C44.0349 29.8516 44.2037 29.2489 44.3162 28.6703C44.8747 28.5899 45.4534 28.5698 46.0199 28.5819C52.4249 28.7145 58.8299 28.5939 65.2349 28.5015V28.4935C68.4012 28.5055 71.5675 28.5417 74.7298 28.614C75.0071 28.622 75.9233 28.7225 75.9715 29.0801C76.0277 29.502 74.9227 29.8637 74.6133 29.936C72.6806 30.374 70.5108 30.378 68.5338 30.374C66.9225 30.37 65.3072 30.3217 63.6959 30.3418C62.5869 30.3539 61.1604 30.37 60.1077 30.7115C57.741 31.479 57.4798 34.3721 57.9901 36.4575C56.5315 36.4977 54.9443 36.7348 53.5259 37.0683C51.4565 37.5545 47.0405 38.9247 46.3052 41.1507L46.0963 41.7816L68.9718 41.6892C70.0848 41.6852 70.0768 40.7329 68.9718 40.7369L47.583 40.8213C48.7724 39.435 52.0713 38.3903 53.7429 37.9965C55.2095 37.6509 56.7806 37.4018 58.2915 37.4018C58.4401 37.7715 58.6209 38.1371 58.846 38.4626C59.1875 38.9608 59.6737 39.3908 60.2322 39.6319C60.7184 39.8408 61.3252 39.9212 61.7833 39.5997C62.1369 39.3546 62.2855 38.9568 62.2976 38.5349C62.3056 38.2938 62.2574 38.0527 62.157 37.8317C61.6507 36.7388 60.0595 36.5097 58.9826 36.4575C58.5325 34.8583 58.4843 32.2344 60.397 31.6116C61.3413 31.3062 62.7074 31.3022 63.7039 31.2901C65.3112 31.27 66.9225 31.3183 68.5298 31.3223C70.5831 31.3263 72.8132 31.3223 74.8223 30.8602C75.7022 30.6593 77.0644 30.0606 76.9157 28.9475C76.7831 27.9631 75.5817 27.6778 74.754 27.6577C73.3838 27.6255 72.0136 27.6014 70.6434 27.5813L69.1004 27.5613C67.9472 27.5492 66.7939 27.5412 65.6407 27.5371H64.8813V27.5492C58.6009 27.6376 52.3204 27.7501 46.044 27.6215C45.5176 27.6095 44.9872 27.6255 44.4649 27.6858C44.5573 26.834 44.5734 25.966 44.5533 25.1061C44.485 21.9599 45.4976 21.6867 48.3866 21.7068C53.8273 21.7469 59.2719 21.7952 64.7125 21.7791C64.7808 21.9117 64.8532 22.0443 64.9295 22.1769C65.5121 23.1654 66.1189 23.8163 66.9587 24.5878L67.5654 25.1343C67.6699 25.2629 67.7945 25.3794 67.9431 25.4557C68.0556 25.5481 68.1641 25.6446 68.2766 25.741C68.7026 26.1147 69.1406 26.5889 69.2531 27.1675C69.3013 27.4126 69.3616 27.6336 69.6107 27.7461C69.9 27.8787 70.1371 27.73 70.338 27.5291C70.5951 27.2679 70.8121 26.9746 71.0251 26.6813C71.0934 26.5888 71.1577 26.4924 71.226 26.396C71.3345 26.2674 71.4349 26.1388 71.5354 26.0022C71.5916 25.9258 71.6479 25.8455 71.7001 25.7651C71.7765 25.7089 71.8327 25.6245 71.8568 25.524C71.8769 25.4919 71.897 25.4557 71.9171 25.4276C72.0417 25.2428 72.1663 25.0619 72.2788 24.8731C72.6605 24.2262 72.8132 23.4989 72.9056 22.7635C72.9819 22.1528 73.006 21.538 72.986 20.9232C73.0703 21.0237 73.1587 21.1241 73.2552 21.2125C73.4882 21.4375 73.7615 21.6304 74.0548 21.767C74.2477 21.8554 74.4526 21.9157 74.6615 21.9559C74.8062 22.0081 74.9508 22.0563 75.0995 22.1005C75.7304 22.2894 76.3853 22.3175 77.0202 22.4782C77.2533 22.5385 77.4823 22.639 77.6712 22.7917C77.7073 22.8198 77.7355 22.8519 77.7676 22.8841C77.856 22.9966 77.9323 23.1171 77.9966 23.2457L78.0087 23.2698L78.0248 23.2939C78.0248 23.2939 78.0328 23.314 78.0408 23.3261C78.0569 23.3622 78.077 23.3984 78.1051 23.4265C78.2417 23.7199 78.6717 23.7239 78.8244 23.4346C79.0494 23.0046 79.0293 22.4823 78.9811 22.0121C78.9329 21.5661 78.8284 21.1322 78.6958 20.7062C78.5793 20.3366 78.4427 19.9749 78.294 19.6173C78.1493 19.2597 77.9806 18.9181 77.6993 18.6489C77.4863 18.448 77.1568 18.2712 76.9881 18.0462C76.755 17.7368 76.5822 17.4515 76.2085 17.2827C76.084 17.2265 75.9554 17.1863 75.8228 17.1582C76.2568 17.0015 76.6867 16.8367 77.1166 16.672C77.2251 16.6318 77.3296 16.5876 77.4341 16.5474C77.647 16.7363 77.9524 16.8126 78.2377 16.7724C78.8766 16.684 79.3467 16.2099 79.7245 15.7197C79.9897 15.3741 80.2107 15.0004 80.3633 14.5946C80.4959 14.3896 80.5803 14.1566 80.5683 13.9075C80.5683 13.8552 80.5683 13.803 80.5482 13.7508C80.5321 13.6824 80.512 13.6141 80.4839 13.5498C80.3513 13.2485 80.1343 13.0677 79.9013 12.8507C79.7486 12.71 79.6361 12.5413 79.5557 12.3484C79.3668 11.8984 79.3066 11.3881 79.1699 10.9219C79.0735 10.5965 78.961 10.2991 78.6677 10.0982C78.4145 9.92543 78.1333 9.83704 77.848 9.73658C77.2814 9.54371 76.6907 9.41513 76.092 9.41915C75.875 9.41915 75.6621 9.43924 75.4491 9.47942C75.654 9.21422 75.8308 8.92893 75.9795 8.62757C76.1764 8.23378 76.317 7.81187 76.3853 7.37389C76.4537 6.93591 76.4577 6.44167 76.6385 6.03182C76.7309 5.81483 76.8434 5.60991 76.9278 5.38489C77.0202 5.1438 77.0765 4.89065 77.1166 4.6375C77.185 4.16738 77.1769 3.69725 77.2251 3.2231C77.2613 2.85745 77.3216 2.47572 77.4903 2.14222C77.5345 2.05783 77.5828 1.98148 77.643 1.90514C77.6872 1.8529 77.7274 1.81272 77.7636 1.75647C77.7716 1.75245 77.7796 1.74441 77.7837 1.74039C77.7957 1.73236 77.8038 1.7203 77.8078 1.71629C77.9203 1.6319 77.9846 1.49528 77.9685 1.35465C77.9565 1.20598 77.86 1.06936 77.7194 1.0131C77.6872 1.00105 77.6591 0.988994 77.6229 0.984976C77.5988 0.980958 77.5747 0.980957 77.5586 0.980957C77.5345 0.980957 77.5104 0.980957 77.4863 0.980957C77.4381 0.980957 77.3939 0.993011 77.3457 1.00908C77.3015 1.02516 77.2613 1.04525 77.2211 1.06534C77.189 1.08543 77.1568 1.10552 77.1287 1.13365C77.1126 1.14972 77.0966 1.16579 77.0805 1.18589C77.0604 1.20999 77.0483 1.2341 77.0323 1.26223V1.25419ZM57.8012 7.31763C57.9057 7.66722 58.0905 7.99269 58.3035 8.29003C58.5567 8.64765 58.85 8.96509 59.1353 9.29458C59.5612 9.79283 59.967 10.3112 60.2764 10.8898C59.951 10.6367 59.6014 10.4197 59.2357 10.2308C58.7214 9.96964 58.1749 9.77274 57.6204 9.61604C57.3351 9.53567 57.0498 9.46737 56.7605 9.39906C56.5797 9.35887 56.4029 9.31065 56.2221 9.27851C55.9167 9.13385 55.6033 9.00527 55.2818 8.89276C54.8358 8.74007 54.4822 9.32271 54.8599 9.62809C55.1452 9.86114 55.4707 10.0219 55.7801 10.2147C56.0453 10.3795 56.2663 10.5844 56.4069 10.8697C56.6962 11.4523 56.6802 12.1997 56.7927 12.8346C56.861 13.2284 56.9373 13.6463 57.1945 13.9677C57.299 14.0963 57.4235 14.1968 57.5642 14.2771C57.5481 14.2852 57.532 14.2932 57.5159 14.3012C57.3874 14.3695 57.2668 14.4459 57.1543 14.5303C54.3054 14.5383 51.5047 14.5705 48.6599 14.5102C48.1335 14.4981 47.6031 14.5142 47.0807 14.5745C47.1731 13.7226 47.2937 11.6613 47.2776 10.8014C47.2093 7.65516 48.2219 7.38193 51.111 7.40202C52.6419 7.41407 55.6796 7.35782 57.8053 7.32166L57.8012 7.31763ZM43.2916 28.8752C43.2032 29.2328 43.0866 29.5985 42.9179 29.9239C42.8054 30.1449 42.4437 30.7236 42.1303 30.5789C41.7727 30.4142 41.9214 29.8677 42.1022 29.6266C42.3794 29.2529 42.8455 29.0239 43.2916 28.8792V28.8752ZM45.9114 15.7759C45.823 16.1335 45.7065 16.4992 45.5377 16.8247C45.4252 17.0457 45.0636 17.6243 44.7502 17.4796C44.3926 17.3149 44.5412 16.7684 44.722 16.5273C44.9993 16.1536 45.4654 15.9246 45.9114 15.7799V15.7759Z" fill="#412440"/>
</svg>
