<svg width="566" height="174" viewBox="0 0 566 174" fill="none" xmlns="http://www.w3.org/2000/svg">
<path d="M564.56 95.4645C563.076 91.7802 560.375 88.9498 556.325 86.8395C559.922 79.8829 560.664 73.2143 558.459 67.4891C556.674 62.8613 553.018 59.0528 548.074 56.6346C551.599 50.671 551.774 44.0769 548.505 38.312C545.214 32.5123 538.813 28.53 531.527 27.6511C531.723 26.6928 531.882 25.7047 531.909 24.6719C531.969 22.5814 531.734 20.476 531.227 18.4203L531.183 18.2366L531.107 18.0579C525.879 5.98183 519.041 -0.0462463 511.335 0.60423C502.265 0.991536 502.019 6.77631 501.921 8.95615C501.91 9.19449 501.904 9.41794 501.883 9.61655C501.539 13.147 500.775 16.5235 499.825 18.9467C497.97 16.2802 495.563 14.3536 492.545 13.0924C489.309 11.7418 484.425 11.0267 480.408 13.0576C478.498 14.0209 476.135 15.9624 475.333 19.7908C473.619 19.5078 471.851 19.2446 470.001 19.4581C466.65 19.8504 463.79 21.6082 462.153 24.2845C460.352 27.2241 460.254 30.9333 461.886 34.2056C461.962 34.3595 462.011 34.4687 462.039 34.5382C462.011 34.578 461.968 34.6276 461.913 34.6922C457.694 39.464 456.319 45.065 457.94 50.8995C458.497 52.9105 459.386 54.8271 460.238 56.6743C460.369 56.9623 460.505 57.2503 460.636 57.5433C451.304 64.7978 442.196 74.9224 449.683 89.7095C445.797 92.4257 444.335 96.6215 445.334 102.213L446.43 108.34C448.51 119.974 450.66 132 453.061 143.803C454.093 148.858 455.55 153.888 456.958 158.749C457.509 160.646 458.055 162.538 458.579 164.44C460.047 169.758 464.189 173.03 469.652 173.184L472.773 173.273C477.472 173.412 482.302 173.556 487.12 173.556C488.485 173.556 489.844 173.547 491.203 173.517C502.958 173.293 514.904 172.946 526.457 172.608C531.079 172.474 535.707 172.34 540.33 172.211C546.175 172.052 550.639 168.512 551.435 163.407C551.807 161.043 552.161 158.675 552.521 156.306C552.882 153.923 553.242 151.545 553.613 149.161C555.801 135.193 559.229 121.245 563.802 107.694C565.019 104.09 566.399 100.003 564.566 95.4546L564.56 95.4645ZM488.381 165.751C488.196 163.357 488.016 160.984 487.835 158.625C487.295 151.53 486.788 144.826 486.176 137.984C484.823 122.864 483.546 109.596 482.274 97.4309C482.078 95.5738 483.104 93.4287 485.008 91.6908C486.946 89.928 489.434 88.8952 491.372 89.0442C497.031 89.7294 499.225 93.2201 499.4 96.264C499.405 96.3682 499.41 96.4278 499.41 96.4626C499.4 96.0703 499.52 95.6234 499.776 95.2212C499.52 95.6582 499.378 96.2391 499.443 97.0187C501.239 117 501.157 138.098 499.198 158.029C499.11 158.928 499.034 159.832 498.963 160.736C498.827 162.434 498.696 164.048 498.466 165.656C496.966 165.756 495.432 165.751 493.822 165.751C493.211 165.751 492.6 165.751 491.988 165.751C490.804 165.756 489.62 165.756 488.387 165.756L488.381 165.751ZM472.582 27.2638C473.051 27.3284 473.564 27.4426 474.105 27.5667L474.585 27.676C477.084 28.2222 479.076 28.0484 480.675 27.1397C482.247 26.2459 483.268 24.7414 483.792 22.5466C484.163 21.0073 484.888 19.9795 485.849 19.6518C486.902 19.2893 488.425 19.6965 490.029 20.769C492.774 22.5963 494.035 25.1883 494.499 29.9601C494.324 30.5013 494.139 31.0872 493.948 31.703C493.249 33.9225 492.392 36.6535 491.344 39.2803C491.055 39.3945 490.635 39.5186 490.471 39.4987C483.491 38.7887 478.127 37.3338 473.586 34.9156C472.015 34.0765 470.787 32.9493 470.039 31.6483C469.188 30.1686 469.04 28.7634 469.652 27.9838C470.044 27.4823 470.792 27.2142 471.758 27.2142C472.02 27.2142 472.293 27.234 472.582 27.2738V27.2638ZM467.747 40.7004C474.509 44.8068 482.209 46.3014 488.921 47.2101C496.103 48.1833 498.821 44.3947 499.836 41.043C500.677 38.2723 501.321 35.4469 501.943 32.7159C502.259 31.3305 502.587 29.8955 502.93 28.5002C502.974 28.4158 503.083 28.2569 503.154 28.1477C503.28 27.959 503.4 27.7802 503.498 27.6064C508.29 19.3389 508.786 17.2336 509.785 13.0427C509.96 12.3078 510.151 11.4985 510.391 10.565C510.658 9.50731 510.844 9.26897 512.175 9.14483C516.388 8.7476 519.324 13.0973 521.857 17.8543C523.112 20.2129 526.37 28.4903 515.602 35.9733C513.78 37.2395 513.387 39.5583 514.702 41.2466C515.45 42.2049 516.618 42.8008 517.922 42.8951C519.232 42.9845 520.498 42.5525 521.404 41.6984L522.228 40.9238C524.007 39.2455 525.688 37.6615 527.439 36.1669C528.018 35.6753 528.58 35.4022 528.782 35.3526C535.271 35.4519 541.192 39.7917 542 45.0501C542.971 51.3861 539.342 56.431 532.52 58.2285C529.895 58.9187 526.861 59.4103 523.243 59.738C508.661 61.0389 494.412 62.042 480.413 60.0111C473.248 58.9733 468.871 56.1529 467.027 51.391C465.449 47.3144 465.684 43.8038 467.752 40.7103L467.747 40.7004ZM466.617 63.2784C473.87 67.9161 482.22 68.5169 490.171 68.7205C506.407 69.1376 519.685 68.3829 531.958 66.347C534.916 65.8554 537.945 64.8425 540.493 63.4869C541.683 62.8563 542.431 62.8414 543.828 63.4323C549.176 65.6866 552.189 71.6601 550.83 77.3207C550.579 78.3684 550.202 79.4261 549.804 80.5433L549.678 80.9008C548.543 84.0886 547.67 85.042 544.374 84.8086C539.216 84.4511 535.882 86.0301 530.91 89.7244C526.948 85.9954 522.222 84.1929 516.869 84.3667C510.953 84.5554 506.778 87.3112 503.487 90.3054C503.351 90.077 503.209 89.8436 503.067 89.5954C501.61 87.1077 499.803 84.0142 492.48 83.0409H492.436C492.436 83.0409 492.425 83.036 492.42 83.031H492.392C486.695 82.316 481.336 84.0588 476.806 88.0858C471.332 84.4313 464.958 83.3289 458.704 84.9824C458.426 85.0569 458.164 85.1264 457.918 85.1959C457.613 85.2804 457.263 85.3747 456.98 85.4442C454.922 81.3825 455.042 77.3257 457.356 73.0504C459.244 69.5547 462.202 66.4314 466.623 63.2784H466.617ZM507.542 98.9503C507.493 98.4885 507.738 97.7486 508.049 97.4011C510.947 94.1387 513.763 92.0086 518.107 92.2022C521.42 92.3512 525.229 94.7346 526.261 97.3018C526.31 97.4209 526.326 97.5947 526.304 97.7983C526.146 99.5859 526.004 101.378 525.862 103.166C525.491 107.804 525.104 112.605 524.514 117.278C523.15 128.103 521.622 139.106 520.148 149.747C519.772 152.453 519.395 155.164 519.024 157.871C518.811 159.43 518.511 161.034 518.227 162.588C518.086 163.357 517.944 164.122 517.807 164.892C517.802 164.941 517.791 164.981 517.785 165.021C515.963 164.981 514.162 164.971 512.333 164.971C511.073 164.971 509.796 164.976 508.486 164.981C508.12 164.981 507.76 164.981 507.395 164.981C507.493 163.571 507.591 162.161 507.689 160.746C508.039 155.73 508.404 150.542 508.699 145.422C509.561 130.481 509.174 114.845 507.547 98.9404L507.542 98.9503ZM458.639 91.512C460.843 90.653 462.142 90.4246 463.796 90.4246C464.516 90.4246 465.307 90.4693 466.268 90.5189C471.66 90.8168 473.493 95.3603 473.712 97.7188C475.065 112.471 476.506 128.207 477.914 144.151C478.394 149.618 478.825 155.189 479.24 160.572C479.366 162.195 479.491 163.819 479.617 165.438C479.251 165.438 478.885 165.443 478.52 165.448C475.666 165.473 472.964 165.497 470.285 165.388C468.533 165.314 467.61 164.634 467.212 163.114C466.448 160.244 465.635 157.339 464.844 154.534C463.228 148.784 461.553 142.84 460.298 136.966C458.54 128.763 457.078 120.351 455.664 112.213C455.102 108.976 454.54 105.738 453.956 102.506C453.831 101.81 453.754 101.175 453.721 100.569C453.601 98.4686 453.847 93.379 458.644 91.507L458.639 91.512ZM528.585 164.549C527.92 164.549 527.254 164.539 526.583 164.534C526.708 163.809 526.834 163.089 526.965 162.369C527.592 158.804 528.242 155.12 528.706 151.475C530.381 138.351 531.98 125.004 533.524 112.099L534.212 106.369C534.338 105.311 534.398 104.263 534.458 103.25C534.545 101.726 534.627 100.286 534.921 98.9255C535.211 97.5749 535.822 96.3533 536.52 95.7426C540.995 91.8099 547.67 91.0751 552.751 93.955C556.031 95.8171 557.4 98.7467 556.505 101.999C555.556 105.455 554.552 108.966 553.58 112.362C551.463 119.77 549.274 127.427 547.501 135.054C546.011 141.475 545.045 148.049 544.112 154.41C543.779 156.669 543.451 158.928 543.097 161.182C542.633 164.142 541.383 164.425 539.92 164.475C536.215 164.604 532.509 164.574 528.585 164.544V164.549Z" fill="#FBDDEC"/>
<path d="M125.049 81.552C122.935 74.558 118.127 70.0767 110.76 68.2272C110.921 67.7868 111.092 67.3568 111.258 66.9268C111.786 65.5695 112.33 64.1603 112.62 62.7201C113.024 60.7566 113.102 58.7465 113.097 56.3322C113.076 45.4476 105.875 38.1272 95.1767 38.1065C89.3898 38.0961 83.5978 38.0961 77.8109 38.1013H67.3459C67.3459 37.635 67.3562 37.1843 67.3614 36.744C67.377 35.4488 67.3977 34.2209 67.32 33.0087C67.2112 31.3664 67.6308 30.5219 68.9778 29.6567C73.4436 26.7918 75.692 20.9894 74.4435 15.5445C73.3659 10.8248 70.4491 7.2294 67.6308 3.75832C67.1697 3.18845 66.7086 2.62375 66.2579 2.04869C65.4964 1.08507 64.4499 0.556641 63.3049 0.556641C63.2946 0.556641 63.2842 0.556641 63.279 0.556641C61.8077 0.567002 60.3208 1.41664 59.1914 2.88278C57.4766 5.12085 55.8861 7.50398 54.3475 9.81458L54.0781 10.2187C49.4672 17.1246 50.9852 25.3049 57.7719 30.1023C58.3521 30.5167 58.8547 31.2006 58.8858 31.6306C59.0049 33.2211 58.9842 34.8323 58.9635 36.5367C58.9583 37.0496 58.9531 37.5729 58.9479 38.1013H56.3783C53.6791 38.1013 51.0214 38.1013 48.3482 38.0909C42.4059 38.0806 36.2616 38.065 30.2209 38.122C20.6624 38.2101 13.3214 45.7221 13.1556 55.6069C13.0882 59.5028 13.3421 64.0153 15.6579 68.2116L14.5181 68.5795C6.3792 71.2113 1.72691 76.5267 0.680408 84.3651C-0.480072 93.0946 2.84595 99.8865 10.5652 104.56C11.1196 104.896 11.6946 105.958 11.8034 106.839C13.052 117.33 14.2176 128.018 15.2123 137.208C16.1086 145.503 16.9893 153.797 17.8752 162.179L19.0823 173.556H107.16L108.263 163.615C109.045 156.558 109.828 149.559 110.589 142.565C111.755 131.877 113.118 119.252 114.428 106.663C114.573 105.28 115.06 104.549 116.288 103.86C123.976 99.5602 127.66 90.1831 125.054 81.5572L125.049 81.552ZM81.9814 117.087C81.2509 131.396 80.4013 146.648 79.3807 163.703C79.3496 164.19 78.7435 165.07 78.5259 165.148C75.6713 165.272 72.8426 165.257 69.8482 165.246C69.0866 165.246 68.3147 165.241 67.5427 165.236V106.518H82.0125C82.0125 107.549 82.028 108.575 82.0436 109.59C82.0798 112.175 82.1109 114.615 81.9866 117.087H81.9814ZM35.3912 106.58L38.6084 165.096H26.6928L20.248 106.58H35.3912ZM84.5666 97.8505H59.1862C46.0583 97.8557 32.4797 97.8609 19.1289 97.8298C14.601 97.8194 11.3371 95.6124 9.68968 91.4523C7.93341 87.0228 8.69498 82.9145 11.8863 79.5678C13.855 77.5058 16.3935 76.5422 19.8801 76.5422H19.9682C30.4903 76.5889 41.1884 76.5837 51.5291 76.5785C55.3422 76.5785 59.15 76.5733 62.963 76.5733C67.4961 76.5733 72.0292 76.5733 76.5624 76.5733C86.7062 76.5733 96.8501 76.5733 106.994 76.5889C111.382 76.5992 114.521 78.5472 116.324 82.3809C118.21 86.3908 117.853 90.3385 115.288 93.794C113.288 96.4932 110.398 97.8609 106.693 97.8609H106.678C99.3109 97.8505 91.9439 97.8557 84.5769 97.8609L84.5666 97.8505ZM103.015 64.3106C101.471 66.7662 99.0104 68.0148 95.6896 68.02C74.8372 68.051 52.5135 68.0666 30.4903 68.0096C25.7965 67.9992 22.6363 65.2742 21.8229 60.539C21.4654 58.4512 21.4085 56.3322 21.6623 54.4102C22.3254 49.4056 25.5841 46.6339 30.8374 46.608C35.3446 46.5873 39.8933 46.5821 44.4057 46.5821C47.597 46.5821 50.7676 46.5821 53.8967 46.5873C57.0725 46.5873 60.2535 46.5925 63.4344 46.5925C66.6154 46.5925 69.527 46.5925 72.5732 46.6029C79.7537 46.6132 87.1828 46.6236 94.4825 46.5666C94.5446 46.5666 94.6068 46.5666 94.6638 46.5666C99.4352 46.5666 102.295 48.1001 103.652 51.3847C105.595 56.0784 105.372 60.5442 103.01 64.3106H103.015ZM58.7822 106.564V165.241C58.0413 165.241 57.3005 165.241 56.5648 165.246C53.5185 165.262 50.6381 165.272 47.711 165.148C47.4623 164.993 46.9546 164.122 46.9183 163.594C46.5919 158.802 46.3329 153.916 46.0842 149.197C46.0117 147.762 45.934 146.332 45.8563 144.902L45.5972 140.099C45.0222 129.406 44.4419 118.713 43.872 108.02C43.8513 107.637 43.8565 107.243 43.8617 106.792C43.8617 106.72 43.8617 106.647 43.8617 106.57H58.7822V106.564ZM87.6957 165.091L90.9181 106.57H106.056L99.6114 165.091H87.6957ZM62.7299 12.7054C62.8697 12.5293 63.0096 12.348 63.1495 12.1666C63.2687 12.3169 63.3878 12.4723 63.507 12.6225C65.2011 14.7777 66.662 16.6376 66.1336 19.4663C65.7036 21.7613 64.6985 22.927 63.1443 22.927H63.1184C61.5435 22.9114 60.5643 21.7665 60.1395 19.4196C59.6318 16.6324 61.0668 14.814 62.7299 12.7054Z" fill="#FBDDEC"/>
<path d="M380.311 166.274C379.465 165.38 378.516 164.522 377.3 164.327C375.182 163.974 373.053 164.041 370.796 164.108L369.914 164.132C369.738 164.132 369.634 164.059 369.573 163.999C369.531 163.956 369.47 163.883 369.44 163.767V163.658C369.44 157.294 369.44 150.986 369.446 144.726C369.452 129.675 369.464 115.457 369.421 100.929C369.367 83.1527 356.573 70.1945 339.003 70.1154C303.492 69.9694 266.443 69.9694 228.87 70.1154C211.039 70.1884 198.081 83.3778 198.062 101.489C198.05 114.709 198.056 127.922 198.062 141.136V163.676C198.062 163.847 197.989 163.956 197.923 164.023C197.868 164.078 197.752 164.163 197.576 164.163H197.442C195.854 164.139 194.485 164.114 193.08 164.212C192.648 164.242 192.137 164.224 191.596 164.199C189.989 164.132 187.988 164.053 186.649 165.392C185.798 166.243 185.402 167.509 185.475 169.145C185.542 170.678 186.029 171.84 186.917 172.601C187.805 173.361 188.894 173.556 189.971 173.556C190.634 173.556 191.291 173.477 191.894 173.41C192.399 173.349 192.873 173.294 193.25 173.294C244.092 173.355 295.778 173.355 345.768 173.355H374.118C374.343 173.355 374.611 173.38 374.903 173.41C375.748 173.489 376.801 173.593 377.738 173.088C378.638 172.595 379.405 171.962 380.049 171.409C380.786 170.776 381.23 169.863 381.284 168.902C381.333 167.941 380.98 166.986 380.323 166.292L380.311 166.274ZM207.37 130.246C207.34 128.075 207.583 127.43 209.482 126.687C211.842 125.757 214.178 123.938 216.824 120.975C219.088 118.444 221.454 117.112 223.681 117.112C223.766 117.112 223.857 117.112 223.942 117.118C225.993 117.215 227.897 118.438 229.612 120.762C233.056 125.428 238.306 128.032 244.043 127.855C249.701 127.697 254.933 124.783 258.023 120.056C259.276 118.134 260.955 117.057 262.866 116.941C265.275 116.814 267.897 118.189 270.051 120.756C276.572 128.525 285.266 130.362 292.737 125.538C294.215 124.589 295.675 123.256 297.062 121.577C299.489 118.657 301.716 117.221 303.864 117.197C306.048 117.173 308.359 118.584 310.939 121.535C317.357 128.878 326.793 130.246 333.88 124.868C335.389 123.725 336.569 122.265 337.713 120.847L338.109 120.36C339.782 118.31 341.759 117.191 343.827 117.118C346.005 117.045 348.189 118.109 350.148 120.196C351.864 122.033 353.92 123.5 355.916 124.917C356.938 125.647 357.996 126.402 358.976 127.18C359.304 127.442 360.052 128.038 360.247 128.367C360.338 138.094 360.332 147.664 360.332 157.787V163.439C360.332 163.707 360.107 163.926 359.839 163.926L357.424 163.944H207.894C207.626 163.944 207.407 163.725 207.407 163.457V154.125C207.407 151.856 207.407 149.592 207.419 147.323C207.431 141.72 207.443 135.935 207.377 130.228L207.37 130.246ZM360.32 113.328C360.308 114.313 360.296 115.317 360.284 116.333C360.284 116.607 360.101 116.728 359.992 116.777C359.864 116.838 359.675 116.868 359.487 116.716C358.775 116.126 358.312 115.676 357.935 115.226C353.914 110.414 349.199 107.852 344.302 107.822C344.265 107.822 344.235 107.822 344.198 107.822C339.307 107.822 334.544 110.347 330.431 115.128C328.302 117.598 326.112 118.852 323.928 118.852C323.909 118.852 323.891 118.852 323.873 118.852C321.652 118.827 319.444 117.513 317.315 114.946C313.518 110.371 308.718 107.852 303.785 107.852C303.76 107.852 303.736 107.852 303.712 107.852C298.729 107.877 293.886 110.468 290.078 115.147C288.119 117.55 285.941 118.821 283.781 118.827H283.769C281.579 118.827 279.359 117.532 277.345 115.074C273.537 110.42 268.676 107.858 263.675 107.852H263.657C258.589 107.852 253.643 110.468 249.731 115.226C247.705 117.69 245.302 119.01 242.978 118.919C240.879 118.846 238.939 117.641 237.369 115.433C234.047 110.766 228.767 108.029 223.145 108.029C222.933 108.029 222.72 108.029 222.513 108.041C216.898 108.248 211.854 111.156 209.019 115.828C208.855 116.102 208.605 116.37 208.228 116.686C208.034 116.85 207.839 116.814 207.711 116.759C207.626 116.722 207.492 116.631 207.443 116.455V116.309C207.419 115.043 207.389 113.796 207.364 112.573C207.243 107.366 207.133 102.444 207.602 97.6683C208.636 87.2287 217.78 79.3443 228.87 79.3321C266.206 79.2835 303.316 79.3017 338.121 79.326C350.586 79.3443 359.456 87.6546 360.18 100.017C360.436 104.287 360.375 108.686 360.308 113.346L360.32 113.328Z" fill="#FBDEEC"/>
<path d="M275.131 50.7178L275.209 50.8058C277.863 53.7557 279.72 55.8212 282.211 56.3167V56.4371H283.369C286.25 56.4371 288.176 54.4967 291.381 51.2642L291.83 50.815C292.766 49.8286 293.701 48.8468 294.646 47.8604C299.68 42.5903 304.885 37.1443 309.72 31.3601C312.447 28.0906 314.045 23.9644 314.466 19.1111L314.485 18.7452C314.439 10.8447 310.317 4.51411 303.463 1.81423C297.327 -0.612421 291.511 0.591643 285.662 5.50515C284.972 6.08403 284.018 6.88519 283.411 7.32977C282.832 6.88519 281.915 6.09329 281.257 5.51904L281.234 5.50052C275.821 0.517546 269.61 -0.728197 263.275 1.89759C257.95 4.11585 254.12 8.70518 252.767 14.4847C251.397 20.3429 252.906 26.5161 256.815 31.0035C262.719 37.7926 269.027 44.364 275.126 50.7224L275.131 50.7178ZM276.325 11.0624C282.295 16.2445 284.407 16.263 290.455 11.1781C294.206 8.02443 297.188 7.31588 300.74 8.72371C304.626 10.2566 306.987 13.9568 307.071 18.6341C306.76 21.8804 305.737 24.5664 304.033 26.6087C299.355 32.1983 294.238 37.5611 289.283 42.7478L286.509 45.6561L286.115 46.0497C285.379 46.7953 284.156 48.0364 283.392 48.6987C282.6 47.9531 281.318 46.5221 280.674 45.8043L280.475 45.5959C274.436 39.3069 268.193 32.8004 262.405 26.1502C260.024 23.4179 259.144 19.7872 259.987 16.1935C260.793 12.7527 263.03 10.0435 266.119 8.76076C267.225 8.30229 268.254 8.04758 269.254 7.98738H269.708C271.912 7.98738 274.047 8.96915 276.247 11.0068L276.316 11.0716L276.325 11.0624Z" fill="#FBDEEC"/>
</svg>
