<svg width="565" height="175" viewBox="0 0 565 175" fill="none" xmlns="http://www.w3.org/2000/svg">
<path d="M258.982 28.0367C253.753 16.0331 259.63 5.94041 266.319 2.79697C270.616 0.782789 274.853 0.799077 279.14 2.88927C279.948 3.28559 281.124 3.45389 281.892 3.08472C288.517 -0.0750037 295.226 1.12482 299.922 6.46703C304.732 11.945 305.779 19.638 302.733 27.0975C302.639 27.3309 302.579 27.5807 302.499 27.8304C305.256 29.9532 308.107 31.8859 310.699 34.1879C319.063 41.6094 324.641 51.2026 327.383 62.8371C327.862 64.8676 328.634 66.0294 330.459 66.8057C341.046 71.3227 347.263 80.1884 348.618 92.7513C349.959 105.233 345.722 115.401 336.575 122.703C335.164 123.827 334.342 124.935 334.143 126.998C332.916 139.447 331.545 151.879 330.21 164.312C329.985 166.397 329.746 168.487 329.407 170.55C329.013 172.928 327.657 174.16 325.529 174.28C324.911 174.312 324.293 174.301 323.669 174.301C295.022 174.301 266.374 174.301 237.726 174.301C233.195 174.301 232.208 173.216 231.675 168.177C230.204 154.263 228.629 140.359 227.218 126.433C227.044 124.69 226.316 123.909 225.19 123.024C216.077 115.89 211.726 105.933 212.743 93.5059C213.705 81.7357 219.118 72.8429 228.679 67.9621C232.124 66.2031 233.649 63.9935 234.775 60.0411C238.669 46.387 246.38 36.0718 257.486 29.0845C257.955 28.7914 258.398 28.4385 258.977 28.0313L258.982 28.0367ZM320.404 119.131C329.766 119.696 339.077 111.167 340.458 100.759C342.113 88.3103 335.877 77.1535 325.559 74.6019C322.463 73.8364 320.993 72.2457 320.355 68.7059C317.638 53.6565 310.106 42.6844 297.903 35.9523C297.13 35.5234 295.784 35.6049 295.032 36.0935C290.785 38.8623 286.921 42.136 284.055 46.8159C282.301 49.6879 279.195 49.7042 277.415 46.8539C274.524 42.2175 270.716 38.8677 266.454 36.1098C265.731 35.6429 264.485 35.4311 263.782 35.8112C251.504 42.5378 243.788 53.4394 241.071 68.6299C240.468 71.9959 239.247 73.7767 236.166 74.515C223.724 77.5064 217.045 93.1584 222.518 106.15C229.073 121.715 247.282 123.702 256.609 109.864C259.301 105.873 261.988 105.83 264.585 109.744C272.949 122.345 288.502 122.285 296.946 109.625C299.408 105.933 302.23 105.879 304.628 109.576C308.551 115.629 313.824 118.746 320.404 119.126V119.131ZM300.854 118.854C290.889 129.94 274.106 132.97 260.542 118.843C253.548 126.439 245.154 129.381 235.508 127.975C236.849 140.489 238.165 152.732 239.481 165.007H321.985C323.316 152.574 324.627 140.294 325.957 127.861C316.122 129.582 307.942 126.444 300.854 118.86V118.854ZM280.75 36.2672C283.726 33.8621 286.752 31.4516 289.738 28.9868C291.293 27.7001 292.918 26.4623 294.269 24.9313C297.125 21.6847 297.125 16.6465 294.449 13.2805C291.752 9.89277 287.435 9.48559 284.195 12.3141C281.214 14.9147 280.212 14.9038 277.321 12.3956C274.843 10.2457 272.127 9.71361 269.285 11.3423C266.404 12.9982 265.013 15.6856 265.083 19.4262C265.158 23.3677 267.411 25.5719 269.883 27.597C273.502 30.5613 277.181 33.4278 280.75 36.2726V36.2672Z" fill="#FBDDEC"/>
<path d="M171.588 170.347C171.504 169.166 170.84 168.018 169.807 167.259C169.122 166.764 168.511 166.484 167.889 166.374C166.135 166.052 164.359 166.115 162.483 166.179H162.304C162.051 166.205 161.819 166.1 161.635 165.926C161.456 165.752 161.361 165.52 161.361 165.278V163.26C161.361 158.059 161.361 152.864 161.366 147.668C161.371 135.296 161.382 122.508 161.345 109.926C161.308 96.1363 153.257 86.4411 139.815 83.9962C138.419 83.7433 138.382 83.522 138.403 82.2521C138.424 80.7926 138.403 79.3172 138.382 77.8893C138.345 75.4128 138.303 72.8467 138.514 70.3808C138.667 68.5471 139.42 66.587 140.427 65.3962C142.518 62.9197 144.8 60.5012 147.002 58.167C148.957 56.0962 150.975 53.9516 152.883 51.7544C157.551 46.3694 157.657 37.9862 153.125 32.6749C148.752 27.5481 142.128 26.5733 135.405 30.0614C134.962 30.2933 133.729 30.2353 132.881 29.8191C128.339 27.585 124.203 27.4269 120.241 29.3185C116.399 31.1574 113.675 34.6614 112.764 38.9346C111.794 43.4714 112.985 48.1345 116.03 51.7333C118.607 54.7736 121.389 57.698 124.082 60.5275C125.662 62.1873 127.291 63.905 128.861 65.6228C129.33 66.1339 130.31 67.2035 130.326 67.7357C130.452 71.893 130.436 75.9713 130.42 80.292L130.41 82.563C130.41 83.0583 130.004 83.464 129.509 83.464H91.097C90.6017 83.464 90.196 83.0583 90.196 82.5524V78.1158C90.1854 65.3698 90.1802 53.3352 90.2698 41.0265C90.2698 40.6313 90.7334 39.9147 91.6397 38.9083C93.2942 37.0641 95.012 35.2199 96.6717 33.4284C99.4696 30.4197 102.362 27.3057 105.06 24.1021C108.78 19.6813 109.391 14.233 106.788 8.75837C104.301 3.55248 100.123 0.780919 95.0647 0.923185C92.7462 0.991684 90.5016 1.73463 88.3307 2.45123C87.6088 2.68834 86.8606 2.93599 86.1177 3.15729C85.9543 3.20472 85.7805 3.20472 85.6118 3.14149C85.1429 2.97814 84.6581 2.79899 84.1628 2.61457C82.4556 1.97701 80.5271 1.24987 78.5091 1.05491C73.1029 0.528001 68.64 3.03083 65.9527 8.08919C62.9968 13.6587 63.7134 20.2187 67.7864 24.7923C69.6886 26.9263 71.675 29.0392 73.593 31.0784C75.9061 33.5338 78.2983 36.0788 80.5324 38.6554C81.5283 39.8041 82.2343 41.5165 82.2501 42.8233C82.3819 53.2192 82.3608 63.7996 82.345 74.0323C82.345 76.5615 82.3344 79.0959 82.3344 81.6251C82.3344 81.9834 82.3081 82.3628 82.287 82.642C82.2449 83.1321 81.8602 83.4956 81.3807 83.4956H43.0268C42.5315 83.4956 42.1258 83.0952 42.1258 82.5999C42.1258 81.8464 42.1152 81.0929 42.1047 80.3394C42.0731 76.7301 42.0415 73.3209 42.2259 69.8802C42.2996 68.4049 42.9636 66.6871 43.8804 65.6122C45.8194 63.3412 47.9007 61.1019 49.9083 58.9415C52.2741 56.3965 54.719 53.7672 56.9794 51.0378C61.3159 45.8056 61.1684 37.7069 56.6475 32.6117C52.0423 27.4216 45.5876 26.5206 38.9221 30.1405C38.5111 30.3671 37.4046 30.3671 36.7934 30.0509C30.3019 26.7103 23.8946 27.5902 19.6635 32.4062C15.0688 37.649 14.8212 45.7055 19.0944 51.1485L19.4422 51.5964C21.0862 53.6987 22.7881 55.8749 24.9432 57.5294C32.6624 63.4361 35.6764 71.1237 34.1641 81.0191C34.1062 81.3827 34.0904 81.7621 34.122 82.1467C34.2063 83.3007 34.2432 83.7327 32.3832 84.0594C19.5318 86.3251 11.2065 96.3154 11.1802 109.52C11.1644 118.066 11.1697 126.613 11.1802 135.159C11.1802 139.433 11.1802 143.706 11.1802 147.979V165.52C11.1802 165.768 11.0854 166 10.9062 166.173C10.7376 166.342 10.5163 166.432 10.2792 166.432C10.2739 166.432 10.2686 166.432 10.2634 166.432L10.2423 167.749L10.2528 166.432C8.98298 166.405 7.92915 166.395 6.85425 166.484C6.44853 166.516 5.94796 166.49 5.41578 166.463C3.893 166.384 2.17 166.295 0.994985 167.449C0.294192 168.139 -0.0430322 169.135 0.00438987 170.415C0.0465429 171.601 0.431189 172.539 1.15306 173.208C2.14892 174.13 3.55051 174.304 4.87833 174.304C5.3104 174.304 5.73193 174.283 6.13238 174.267C6.49595 174.251 6.84898 174.235 7.17567 174.235C59.9143 174.251 112.653 174.251 165.392 174.251C165.544 174.251 165.739 174.256 165.955 174.262C167.136 174.293 168.084 174.304 168.748 174.051C169.649 173.714 169.986 173.587 170.624 172.955C171.319 172.27 171.662 171.342 171.588 170.352V170.347ZM128.281 53.509C126.205 51.296 124.192 49.1304 122.216 46.9332C119.677 44.1037 119.608 40.1465 122.058 37.5225C124.256 35.1567 127.359 35.3253 130.589 37.9809C133.234 40.1518 135.784 40.1518 138.387 37.9704C142.582 34.4506 145.106 35.8891 146.639 37.2749C149.052 39.4668 149.337 43.8665 147.218 46.3272C144.252 49.768 141.175 53.0401 137.913 56.5019C137.007 57.4609 136.095 58.4304 135.184 59.4105C134.836 59.7793 134.209 59.7846 133.861 59.4157L128.265 53.4564L128.286 53.5038L128.281 53.509ZM153.552 120.949C153.536 121.739 153.52 122.535 153.505 123.351C153.494 123.91 153.062 124.126 152.93 124.184C152.767 124.252 152.351 124.363 151.987 124.005L151.787 123.815C151.629 123.646 151.486 123.488 151.365 123.33C148.056 119.104 143.772 116.765 139.304 116.744C139.288 116.744 139.267 116.744 139.252 116.744C134.82 116.744 130.563 119.031 127.248 123.188C125.631 125.222 123.713 126.318 121.705 126.36C121.663 126.36 121.621 126.36 121.584 126.36C119.629 126.36 117.722 125.354 116.062 123.446C112.305 119.12 108.079 116.839 103.848 116.839H103.811C99.6593 116.849 95.5652 119.067 91.977 123.246C90.1854 125.338 88.1779 126.418 86.1862 126.402C84.1997 126.376 82.2396 125.232 80.5166 123.093C77.2603 119.067 73.4507 117.007 69.3513 117.007C68.1974 117.007 67.0171 117.171 65.8263 117.497C62.8282 118.325 59.5982 120.353 56.9689 123.056C54.7717 125.311 52.6271 126.407 50.588 126.318C48.6437 126.233 46.7257 125.053 44.8921 122.809C41.8096 119.031 37.7419 116.933 33.4475 116.897C33.4106 116.897 33.379 116.897 33.3421 116.897C29.2796 116.897 25.3858 118.736 22.2822 122.102L18.8784 120.738L18.91 119.626C19.0681 114.225 19.2367 108.64 20.1377 103.318C21.2073 97.0004 28.2047 91.647 35.4182 91.6259C72.2652 91.531 105.471 91.531 136.923 91.6259C145.506 91.6522 152.567 98.3756 153.352 107.259C153.742 111.654 153.647 116.164 153.552 120.943V120.949ZM19.2788 135.165C19.2788 134.891 19.4 134.632 19.6108 134.464C20.4012 133.821 21.1757 133.22 21.9239 132.635C24.0527 130.976 26.0602 129.406 27.7727 127.551C29.385 125.801 31.3293 124.848 33.2736 124.848C33.3527 124.848 33.437 124.848 33.516 124.848C35.4919 124.927 37.3256 125.981 38.8168 127.888C43.3113 133.642 48.6964 135.549 54.8191 133.563C57.4747 132.709 60.2305 130.839 62.375 128.436C64.5143 126.039 66.643 124.827 68.698 124.827H68.7296C70.6581 124.837 72.5813 125.933 74.4466 128.078C78.0243 132.182 82.1131 134.348 86.2758 134.348C86.3126 134.348 86.3548 134.348 86.3917 134.348C90.6649 134.306 94.8434 131.993 98.479 127.651C100.012 125.817 101.936 124.811 103.885 124.811C103.896 124.811 103.906 124.811 103.917 124.811C105.919 124.821 107.884 125.88 109.46 127.798C112.969 132.077 117.137 134.348 121.51 134.364H121.568C125.894 134.364 130.031 132.156 133.524 127.972C135.242 125.917 137.176 124.821 139.12 124.811H139.157C141.217 124.811 143.319 125.996 145.248 128.236C146.449 129.637 147.988 130.66 149.474 131.65C150.333 132.224 151.149 132.767 151.892 133.368C153.262 134.485 153.441 134.922 153.462 134.996C153.573 143.058 153.568 150.977 153.557 159.366V165.388C153.557 165.889 153.151 166.3 152.651 166.3H20.1851C19.6898 166.3 19.2841 165.894 19.2841 165.399V135.17L19.2788 135.165ZM83.3409 30.0298C83.246 29.9297 83.1512 29.8296 83.0563 29.7295C79.7947 26.2361 76.7123 22.9429 73.7669 19.4916C71.2429 16.5303 71.3747 12.7102 74.0883 10.1968C76.6385 7.83101 79.4838 8.90591 81.4176 10.2232C84.4105 12.2676 88.2359 12.2307 91.1602 10.1336C93.9265 8.14715 96.2133 8.16296 98.3526 10.1863C101.05 12.7208 101.24 16.6199 98.8057 19.46C95.8392 22.9165 92.7462 26.2413 89.4688 29.7611C88.6363 30.6516 87.7985 31.5579 86.9502 32.4747C86.7763 32.6591 86.5445 32.7645 86.2916 32.7645C86.0334 32.7645 85.7963 32.6591 85.6224 32.4694L83.3409 30.0298ZM34.6858 56.465C31.4663 53.0664 28.426 49.8575 25.4911 46.5064C23.2676 43.9772 23.4098 39.7197 25.802 37.3855C28.0994 35.1461 31.0448 35.3306 34.1009 37.9124C36.8672 40.2414 39.507 40.1992 42.1785 37.7702C44.9764 35.2199 48.043 35.0724 50.3719 37.3644C52.7852 39.7355 52.938 43.914 50.7144 46.48C47.7743 49.8733 44.7234 53.1139 41.4987 56.5493C40.6083 57.4925 39.7125 58.4462 38.8115 59.4157C38.4637 59.7846 37.8367 59.7846 37.4889 59.4157L37.0938 58.9995C36.2876 58.1459 35.4867 57.2975 34.6963 56.465H34.6858Z" fill="#FBDEEC"/>
<path d="M564.143 169.714C564.052 168.333 563.265 167.133 562.06 166.523C561.717 166.346 561.348 166.217 560.967 166.148C559.147 165.826 557.256 165.891 555.586 165.944C555.222 165.95 554.906 165.832 554.654 165.585C554.402 165.344 554.263 165.012 554.263 164.664V162.367C554.252 157.034 554.274 151.604 554.295 146.356C554.338 135.491 554.386 124.251 554.129 113.199C553.942 104.904 550.574 97.1395 544.651 91.3402C538.729 85.5409 530.9 82.3387 522.61 82.328C521.85 82.3226 521.084 82.328 520.303 82.328H519.114C518.407 82.328 517.829 81.755 517.829 81.0428V79.2061C517.829 76.02 517.829 72.8285 517.834 69.6423C517.845 57.792 517.855 45.5347 517.711 33.4756C517.695 32.3403 517.47 30.2626 516.169 29.0524C515.51 28.442 514.664 28.1368 513.743 28.1957C511.033 28.3402 509.673 30.0591 509.711 33.3149C509.721 33.8772 509.716 34.4394 509.711 35.0017V35.8692C509.711 39.73 509.7 43.5909 509.695 47.4518C509.678 57.9152 509.662 68.7373 509.775 79.3828C509.791 80.8286 509.641 81.6586 509.298 81.9906C508.966 82.3173 508.168 82.4565 506.942 82.419C501.154 82.2155 495.274 82.2584 489.587 82.2959C487.247 82.3119 484.907 82.328 482.567 82.328H481.33C480.623 82.328 480.05 81.7497 480.05 81.0428V68.1751C480.05 57.2083 480.05 46.2362 480.045 35.2748C480.045 35.0338 480.05 34.7875 480.061 34.5412C480.093 33.4488 480.125 32.2064 479.627 31.1087C479.166 30.0806 478.476 28.5277 476.082 28.3295C474.534 28.2064 473.046 29.1274 472.184 30.7499C471.638 31.7834 471.664 33.2506 471.691 34.5465C471.691 34.7607 471.696 34.9588 471.696 35.1409V80.6787C471.696 81.3855 471.123 81.9585 470.417 81.9585H443.235C442.528 81.9585 441.955 81.3802 441.955 80.6733C441.955 73.0534 442.02 65.3906 442.084 57.9741C442.148 50.67 442.212 43.1143 442.212 35.7139V35.5372C442.212 34.3002 442.213 32.8919 441.725 31.6121C441.597 31.2908 441.425 30.9748 441.216 30.675C440.558 29.7325 439.514 29.1435 438.341 29.0578C437.12 28.9828 435.953 29.438 435.139 30.3162C434.764 30.7071 434.469 31.098 434.239 31.5103C433.672 32.5063 433.671 33.8557 433.677 34.9428V35.1891C433.677 42.5681 433.746 50.0382 433.816 57.2619C433.88 64.4802 433.95 71.9449 433.95 79.3132V81C433.95 81.68 433.42 82.2423 432.74 82.2798C432.167 82.3173 431.733 82.3226 431.321 82.3012C423.379 81.8889 415.845 84.7698 410.073 90.3978C404.15 96.1757 400.889 104.31 401.114 112.722C401.43 124.283 401.355 136.064 401.28 147.459C401.248 152.493 401.21 157.698 401.21 162.822V164.68C401.21 165.023 401.076 165.35 400.83 165.591C400.584 165.837 400.23 165.976 399.909 165.966L399.336 165.976C398.404 165.966 397.58 165.976 396.739 166.03C396.353 166.051 395.904 166.041 395.427 166.019C393.879 165.966 392.123 165.907 390.918 167.096C390.185 167.818 389.831 168.873 389.863 170.217C389.895 171.551 390.302 172.584 391.079 173.291C391.984 174.116 393.183 174.303 394.345 174.303C394.859 174.303 395.363 174.266 395.829 174.234C396.252 174.201 396.648 174.175 396.991 174.175C444.151 174.212 492.098 174.212 538.477 174.212H558.959C559.639 174.223 560.341 174.228 560.919 174.132C561.53 174.019 561.953 173.671 562.236 173.441C562.301 173.387 562.36 173.334 562.435 173.286C563.607 172.483 564.25 171.144 564.154 169.719L564.143 169.714ZM546.134 149.21C546.118 154.742 546.102 160.268 546.102 165.8C546.102 165.81 546.102 165.821 546.102 165.842H409.478C409.419 165.146 409.371 164.488 409.371 163.856V163.261C409.355 146.308 409.344 128.781 409.371 111.544C409.393 99.4903 418.357 90.3871 430.223 90.3656C461.763 90.3121 493.753 90.3121 525.293 90.3656C536.774 90.3817 545.888 99.0887 546.038 110.189C546.215 123.191 546.172 136.423 546.134 149.216V149.21Z" fill="#FBDEEC"/>
<path d="M491.483 106.463C487.209 105.382 482.337 106.421 477.357 109.467C474.251 106.994 470.492 105.757 466.647 105.976C462.657 106.201 458.877 108 456.28 110.919C450.336 117.585 450.513 126.94 456.714 133.677C459.766 136.997 462.909 140.322 465.951 143.54C468.462 146.196 471.065 148.949 473.592 151.675C474.883 153.067 476.136 153.741 477.431 153.741C478.727 153.741 479.889 153.11 481.094 151.814C483.456 149.265 485.892 146.689 488.243 144.204C491.783 140.467 495.44 136.601 498.947 132.708C503.312 127.867 504.099 120.306 500.864 114.33C498.615 110.174 495.37 107.454 491.488 106.474L491.483 106.463ZM493.164 126.849C489.501 131.069 485.715 135.09 481.705 139.348C480.296 140.842 478.872 142.352 477.442 143.889C476.007 142.362 474.588 140.868 473.19 139.396C469.281 135.273 465.592 131.38 461.988 127.342C459.139 124.161 459.493 119.138 462.797 115.915C464.135 114.608 465.656 113.96 467.247 113.96C469.131 113.96 471.113 114.871 472.987 116.67C476.923 120.45 480.061 118.383 482.074 116.498C485.351 113.435 489.11 113.248 492.125 116.006C495.113 118.747 495.617 124.017 493.164 126.844V126.849Z" fill="#FBDEEC"/>
<path d="M437.666 22.723C439.958 22.723 442.046 21.5663 443.267 19.6279C444.483 17.6894 444.617 15.3011 443.621 13.2395L437.666 0.917969L431.712 13.2395C430.715 15.3011 430.849 17.6894 432.065 19.6279C433.28 21.5663 435.374 22.723 437.666 22.723Z" fill="#FBDEEC"/>
<path d="M475.529 22.723C477.821 22.723 479.91 21.5663 481.131 19.6279C482.346 17.6894 482.48 15.3011 481.484 13.2395L475.529 0.917969L469.575 13.2395C468.579 15.3011 468.713 17.6894 469.928 19.6279C471.144 21.5663 473.238 22.723 475.529 22.723Z" fill="#FBDEEC"/>
<path d="M513.395 22.723C515.687 22.723 517.776 21.5663 518.997 19.6279C520.217 17.6894 520.346 15.3011 519.35 13.2395L513.401 0.917969L507.446 13.2395C506.45 15.3011 506.584 17.6894 507.8 19.6279C509.015 21.5663 511.109 22.7283 513.401 22.7283L513.395 22.723Z" fill="#FBDEEC"/>
</svg>
