<svg width="105" height="31" viewBox="0 0 105 31" fill="none" xmlns="http://www.w3.org/2000/svg">
<path d="M94.2077 12.2947C90.8299 11.9225 87.4553 11.5214 84.0728 11.1928C82.6178 11.052 81.364 10.6205 81.4307 8.2806C81.48 6.56473 82.6762 5.68427 84.5436 5.88511C90.4145 6.51726 96.2892 7.11558 102.145 7.883C102.986 7.99516 104.148 8.72467 104.39 9.59732C104.629 10.4599 104.113 12.1097 103.546 12.9861C100.052 18.3372 96.4511 23.5641 92.8793 28.8235C91.9757 30.1518 90.9684 31.2194 89.7407 29.8176C88.457 28.3558 89.0787 26.884 90.0719 25.4432C91.6649 23.1297 93.2247 20.7831 95.1451 17.9335C92.1718 19.029 89.7028 19.9844 87.2149 20.8448C76.9956 24.3791 66.6983 26.2521 56.2733 26.2478C43.2714 26.2433 30.8068 23.3639 18.8939 17.4792C12.6845 14.4136 6.73596 10.6482 1.30305 5.673C0.150606 4.62181 -0.392849 3.31497 0.4614 1.63398C1.28747 0.00857379 2.37538 0.177332 3.47708 1.1887C10.884 7.99996 19.1774 12.503 27.9049 15.8362C44.774 22.2816 62.092 22.6492 79.7357 17.8594C84.6015 16.5372 89.4137 14.7006 94.2512 13.1014C94.2369 12.8309 94.2226 12.5604 94.2082 12.2899L94.2077 12.2947Z" fill="#412540"/>
</svg>
